<svg xmlns="http://www.w3.org/2000/svg" xmlns:xlink="http://www.w3.org/1999/xlink" width="500" zoomAndPan="magnify" viewBox="0 0 375 374.999991" height="500" preserveAspectRatio="xMidYMid meet" version="1.0"><defs><g/><clipPath id="888e299fb7"><path d="M 17.25 0 L 357.75 0 C 367.277344 0 375 7.722656 375 17.25 L 375 357.75 C 375 367.277344 367.277344 375 357.75 375 L 17.25 375 C 7.722656 375 0 367.277344 0 357.75 L 0 17.25 C 0 7.722656 7.722656 0 17.25 0 Z M 17.25 0 " clip-rule="nonzero"/></clipPath></defs><g clip-path="url(#888e299fb7)"><rect x="-37.5" width="450" fill="#5e17eb" y="-37.499999" height="449.999989" fill-opacity="1"/></g><g fill="#ffffff" fill-opacity="1"><g transform="translate(15.206183, 147.944076)"><g><path d="M 24.4375 -117.140625 C 27.351562 -117.765625 29.753906 -118.078125 31.640625 -118.078125 C 34.972656 -117.867188 38.414062 -117.035156 41.96875 -115.578125 C 45.9375 -114.316406 49.171875 -112.539062 51.671875 -110.25 C 52.929688 -109.414062 53.664062 -109 53.875 -109 C 55.539062 -109 58.359375 -109.9375 62.328125 -111.8125 C 67.128906 -114.113281 72.085938 -115.628906 77.203125 -116.359375 C 82.316406 -117.085938 87.585938 -117.453125 93.015625 -117.453125 C 98.660156 -117.242188 102.316406 -116.722656 103.984375 -115.890625 C 106.484375 -115.472656 109.09375 -114.6875 111.8125 -113.53125 C 114.53125 -112.382812 117.242188 -110.664062 119.953125 -108.375 L 123.09375 -105.859375 L 124.96875 -107.421875 C 128.519531 -109.097656 132.117188 -110.613281 135.765625 -111.96875 C 139.421875 -113.320312 143.234375 -114.421875 147.203125 -115.265625 C 148.453125 -115.472656 150.015625 -115.628906 151.890625 -115.734375 C 153.773438 -115.835938 156.078125 -115.890625 158.796875 -115.890625 C 164.847656 -115.890625 170.847656 -114.945312 176.796875 -113.0625 C 182.753906 -111.1875 187.820312 -107.953125 192 -103.359375 C 194.082031 -101.265625 195.75 -98.648438 197 -95.515625 C 198.257812 -92.390625 199.253906 -89.101562 199.984375 -85.65625 C 200.710938 -82.21875 201.234375 -78.722656 201.546875 -75.171875 C 201.859375 -71.617188 202.015625 -68.378906 202.015625 -65.453125 C 202.640625 -38.109375 201.597656 -19.421875 198.890625 -9.390625 C 195.753906 -0.203125 189.800781 4.390625 181.03125 4.390625 C 179.363281 4.390625 177.429688 4.226562 175.234375 3.90625 C 173.046875 3.59375 171.320312 3.019531 170.0625 2.1875 C 167.976562 0.9375 165.316406 -0.726562 162.078125 -2.8125 C 158.847656 -4.90625 157.128906 -7.410156 156.921875 -10.328125 C 156.703125 -12.628906 156.59375 -15.816406 156.59375 -19.890625 C 156.59375 -23.960938 156.804688 -28.816406 157.234375 -34.453125 C 157.859375 -41.128906 158.171875 -47.914062 158.171875 -54.8125 C 158.171875 -64 157.753906 -70.367188 156.921875 -73.921875 C 156.703125 -77.253906 155.863281 -79.65625 154.40625 -81.125 C 153.988281 -81.332031 153.625 -81.539062 153.3125 -81.75 C 153 -81.957031 152.53125 -82.164062 151.90625 -82.375 C 150.65625 -83 149.191406 -83.3125 147.515625 -83.3125 C 145.015625 -83.3125 142.195312 -82.628906 139.0625 -81.265625 C 135.925781 -79.910156 132.898438 -77.878906 129.984375 -75.171875 L 128.40625 -73.609375 L 128.40625 -48.859375 C 128.40625 -41.546875 128.40625 -35.539062 128.40625 -30.84375 C 128.40625 -26.144531 128.300781 -22.753906 128.09375 -20.671875 C 128.09375 -18.367188 128.039062 -16.175781 127.9375 -14.09375 C 127.832031 -12.007812 127.675781 -9.816406 127.46875 -7.515625 C 126.425781 -5.222656 125.226562 -3.394531 123.875 -2.03125 C 122.519531 -0.675781 120.898438 0.519531 119.015625 1.5625 C 116.304688 2.601562 113.070312 3.125 109.3125 3.125 C 106.382812 3.125 103.878906 2.914062 101.796875 2.5 C 100.117188 1.664062 98.445312 0.625 96.78125 -0.625 C 95.113281 -1.875 92.503906 -3.441406 88.953125 -5.328125 C 87.484375 -8.878906 86.960938 -14.203125 87.390625 -21.296875 C 87.804688 -24.847656 88.066406 -29.023438 88.171875 -33.828125 C 88.273438 -38.628906 88.328125 -44.160156 88.328125 -50.421875 L 88.328125 -67.03125 C 87.910156 -71.207031 87.488281 -74.390625 87.0625 -76.578125 C 86.644531 -78.765625 85.914062 -80.28125 84.875 -81.125 C 83 -82.582031 79.660156 -83.3125 74.859375 -83.3125 C 71.722656 -83.3125 68.484375 -82.679688 65.140625 -81.421875 C 61.804688 -80.171875 59.929688 -77.671875 59.515625 -73.921875 C 59.085938 -72.867188 58.976562 -71.769531 59.1875 -70.625 C 59.40625 -69.476562 59.300781 -68.382812 58.875 -67.34375 C 58.457031 -64.414062 58.195312 -60.707031 58.09375 -56.21875 C 57.988281 -51.726562 58.039062 -46.351562 58.25 -40.09375 C 58.25 -32.15625 58.195312 -25.835938 58.09375 -21.140625 C 57.988281 -16.441406 57.832031 -13.257812 57.625 -11.59375 C 57.207031 -8.039062 54.960938 -5.21875 50.890625 -3.125 C 46.816406 -1.039062 43.320312 0.519531 40.40625 1.5625 C 38.726562 1.976562 36.429688 2.289062 33.515625 2.5 C 27.878906 2.5 23.285156 1.351562 19.734375 -0.9375 C 18.691406 -1.769531 17.695312 -2.707031 16.75 -3.75 C 15.8125 -4.800781 15.132812 -5.953125 14.71875 -7.203125 C 14.300781 -8.453125 13.9375 -9.648438 13.625 -10.796875 C 13.3125 -11.953125 13.15625 -13.363281 13.15625 -15.03125 L 13.15625 -51.046875 C 12.945312 -76.523438 12.945312 -91.457031 13.15625 -95.84375 C 13.570312 -100.019531 13.9375 -103.460938 14.25 -106.171875 C 14.5625 -108.890625 14.925781 -110.769531 15.34375 -111.8125 C 15.96875 -113.0625 17.0625 -114.050781 18.625 -114.78125 C 20.195312 -115.519531 22.132812 -116.304688 24.4375 -117.140625 Z M 175.703125 -108.0625 C 174.242188 -108.6875 172.992188 -109 171.953125 -109 C 169.859375 -109 168.601562 -107.847656 168.1875 -105.546875 C 167.769531 -104.296875 167.71875 -103.515625 168.03125 -103.203125 C 168.34375 -102.890625 169.019531 -102.316406 170.0625 -101.484375 C 172.988281 -100.015625 176.226562 -98.863281 179.78125 -98.03125 C 183.539062 -96.78125 185.628906 -97.195312 186.046875 -99.28125 C 186.460938 -99.90625 185.207031 -101.472656 182.28125 -103.984375 C 181.238281 -104.816406 180.140625 -105.597656 178.984375 -106.328125 C 177.835938 -107.054688 176.742188 -107.632812 175.703125 -108.0625 Z M 175.703125 -108.0625 "/></g></g></g><g fill="#ffffff" fill-opacity="1"><g transform="translate(212.829529, 147.944076)"><g><path d="M 71.71875 -115.890625 L 93.953125 -115.890625 L 97.71875 -114.625 C 106.070312 -112.332031 112.023438 -110.035156 115.578125 -107.734375 C 118.078125 -106.273438 120.265625 -104.707031 122.140625 -103.03125 C 124.023438 -101.363281 125.800781 -99.59375 127.46875 -97.71875 C 134.363281 -88.53125 137.707031 -76.003906 137.5 -60.140625 C 137.289062 -53.660156 136.347656 -47.394531 134.671875 -41.34375 C 133.003906 -35.289062 130.601562 -29.648438 127.46875 -24.421875 C 124.34375 -19.203125 120.378906 -14.660156 115.578125 -10.796875 C 110.773438 -6.941406 105.132812 -3.96875 98.65625 -1.875 C 97.613281 -1.457031 96.253906 -1.09375 94.578125 -0.78125 C 92.910156 -0.46875 90.828125 -0.101562 88.328125 0.3125 L 80.8125 2.1875 L 71.40625 2.1875 C 52.613281 2.1875 37.679688 -2.140625 26.609375 -10.796875 C 15.546875 -19.460938 9.804688 -33.71875 9.390625 -53.5625 C 8.765625 -76.113281 15.03125 -93.546875 28.1875 -105.859375 C 30.695312 -108.160156 32.941406 -109.988281 34.921875 -111.34375 C 36.898438 -112.695312 38.9375 -113.476562 41.03125 -113.6875 C 41.445312 -114.101562 42.226562 -114.207031 43.375 -114 C 44.519531 -113.789062 45.929688 -113.582031 47.609375 -113.375 L 52.625 -113.0625 L 57.3125 -114.3125 C 59.820312 -114.738281 62.273438 -115.054688 64.671875 -115.265625 C 67.078125 -115.472656 69.425781 -115.679688 71.71875 -115.890625 Z M 105.234375 -106.484375 C 101.265625 -108.992188 99.070312 -108.367188 98.65625 -104.609375 C 98.65625 -103.984375 98.863281 -103.460938 99.28125 -103.046875 C 99.695312 -102.628906 100.429688 -101.894531 101.484375 -100.84375 C 103.566406 -99.175781 105.234375 -98.082031 106.484375 -97.5625 C 107.742188 -97.039062 109.726562 -96.78125 112.4375 -96.78125 C 113.476562 -97.195312 113.738281 -97.875 113.21875 -98.8125 C 112.695312 -99.75 111.5 -101.265625 109.625 -103.359375 C 108.582031 -104.191406 107.742188 -104.816406 107.109375 -105.234375 C 106.484375 -105.648438 105.859375 -106.066406 105.234375 -106.484375 Z M 80.1875 -84.5625 C 77.050781 -85.1875 73.914062 -85.34375 70.78125 -85.03125 C 67.644531 -84.71875 64.617188 -84.039062 61.703125 -83 C 61.285156 -82.789062 60.707031 -82.210938 59.96875 -81.265625 C 59.238281 -80.328125 58.40625 -79.179688 57.46875 -77.828125 C 56.53125 -76.472656 55.644531 -75.0625 54.8125 -73.59375 C 53.976562 -72.132812 53.351562 -70.78125 52.9375 -69.53125 C 50.84375 -64.9375 50.003906 -59.820312 50.421875 -54.1875 C 50.421875 -48.96875 51.515625 -44.0625 53.703125 -39.46875 C 55.898438 -34.875 59.921875 -32.050781 65.765625 -31 C 68.066406 -30.375 70.257812 -30.0625 72.34375 -30.0625 C 77.351562 -30.0625 81.425781 -30.894531 84.5625 -32.5625 C 87.695312 -34.238281 90.148438 -36.484375 91.921875 -39.296875 C 93.703125 -42.117188 94.90625 -45.359375 95.53125 -49.015625 C 96.15625 -52.671875 96.46875 -56.585938 96.46875 -60.765625 C 96.46875 -67.234375 95.628906 -71.828125 93.953125 -74.546875 C 92.492188 -77.253906 90.613281 -79.492188 88.3125 -81.265625 C 86.019531 -83.046875 83.3125 -84.144531 80.1875 -84.5625 Z M 80.1875 -84.5625 "/></g></g></g><g fill="#ffffff" fill-opacity="1"><g transform="translate(339.628887, 171.578611)"><g><path d="M -24 105.40625 C -26.644531 105.925781 -28.816406 106.171875 -30.515625 106.140625 C -33.535156 105.890625 -36.632812 105.078125 -39.8125 103.703125 C -43.375 102.515625 -46.265625 100.859375 -48.484375 98.734375 C -49.609375 97.960938 -50.265625 97.570312 -50.453125 97.5625 C -51.960938 97.539062 -54.519531 98.347656 -58.125 99.984375 C -62.5 101.972656 -67.003906 103.253906 -71.640625 103.828125 C -76.273438 104.410156 -81.039062 104.65625 -85.9375 104.5625 C -91.03125 104.28125 -94.328125 103.75 -95.828125 102.96875 C -98.078125 102.550781 -100.414062 101.800781 -102.84375 100.71875 C -105.28125 99.632812 -107.710938 98.035156 -110.140625 95.921875 L -112.921875 93.609375 L -114.640625 94.984375 C -117.878906 96.429688 -121.160156 97.738281 -124.484375 98.90625 C -127.804688 100.082031 -131.265625 101.007812 -134.859375 101.6875 C -135.992188 101.851562 -137.410156 101.96875 -139.109375 102.03125 C -140.804688 102.09375 -142.878906 102.101562 -145.328125 102.0625 C -150.796875 101.96875 -156.203125 101.019531 -161.546875 99.21875 C -166.898438 97.425781 -171.425781 94.421875 -175.125 90.203125 C -176.96875 88.285156 -178.425781 85.898438 -179.5 83.046875 C -180.582031 80.203125 -181.425781 77.21875 -182.03125 74.09375 C -182.644531 70.96875 -183.0625 67.796875 -183.28125 64.578125 C -183.5 61.367188 -183.585938 58.445312 -183.546875 55.8125 C -183.671875 31.101562 -182.421875 14.238281 -179.796875 5.21875 C -176.816406 -3.03125 -171.363281 -7.082031 -163.4375 -6.9375 C -161.925781 -6.914062 -160.179688 -6.742188 -158.203125 -6.421875 C -156.234375 -6.097656 -154.691406 -5.550781 -153.578125 -4.78125 C -151.710938 -3.601562 -149.332031 -2.046875 -146.4375 -0.109375 C -143.550781 1.828125 -142.039062 4.117188 -141.90625 6.765625 C -141.738281 8.835938 -141.6875 11.710938 -141.75 15.390625 C -141.820312 19.066406 -142.097656 23.453125 -142.578125 28.546875 C -143.253906 34.566406 -143.648438 40.6875 -143.765625 46.90625 C -143.910156 55.207031 -143.640625 60.96875 -142.953125 64.1875 C -142.804688 67.195312 -142.09375 69.378906 -140.8125 70.734375 C -140.445312 70.921875 -140.117188 71.113281 -139.828125 71.3125 C -139.546875 71.507812 -139.128906 71.707031 -138.578125 71.90625 C -137.453125 72.488281 -136.132812 72.796875 -134.625 72.828125 C -132.363281 72.867188 -129.804688 72.300781 -126.953125 71.125 C -124.097656 69.957031 -121.328125 68.164062 -118.640625 65.75 L -117.203125 64.375 L -116.796875 42.03125 C -116.679688 35.425781 -116.582031 30 -116.5 25.75 C -116.425781 21.507812 -116.28125 18.445312 -116.0625 16.5625 C -116.019531 14.488281 -115.929688 12.507812 -115.796875 10.625 C -115.671875 8.75 -115.492188 6.773438 -115.265625 4.703125 C -114.285156 2.640625 -113.171875 1.007812 -111.921875 -0.1875 C -110.671875 -1.394531 -109.1875 -2.457031 -107.46875 -3.375 C -105.007812 -4.269531 -102.082031 -4.6875 -98.6875 -4.625 C -96.050781 -4.570312 -93.785156 -4.34375 -91.890625 -3.9375 C -90.410156 -3.144531 -88.925781 -2.171875 -87.4375 -1.015625 C -85.945312 0.140625 -83.613281 1.597656 -80.4375 3.359375 C -79.164062 6.585938 -78.773438 11.398438 -79.265625 17.796875 C -79.710938 21.003906 -80.019531 24.773438 -80.1875 29.109375 C -80.363281 33.441406 -80.503906 38.441406 -80.609375 44.109375 L -80.875 59.078125 C -80.570312 62.867188 -80.25 65.753906 -79.90625 67.734375 C -79.5625 69.722656 -78.925781 71.101562 -78 71.875 C -76.332031 73.226562 -73.328125 73.941406 -68.984375 74.015625 C -66.148438 74.066406 -63.210938 73.554688 -60.171875 72.484375 C -57.140625 71.410156 -55.40625 69.175781 -54.96875 65.78125 C -54.5625 64.84375 -54.441406 63.851562 -54.609375 62.8125 C -54.785156 61.769531 -54.675781 60.78125 -54.28125 59.84375 C -53.851562 57.21875 -53.554688 53.878906 -53.390625 49.828125 C -53.222656 45.773438 -53.179688 40.921875 -53.265625 35.265625 C -53.140625 28.097656 -52.988281 22.390625 -52.8125 18.140625 C -52.644531 13.898438 -52.453125 11.023438 -52.234375 9.515625 C -51.804688 6.316406 -49.738281 3.804688 -46.03125 1.984375 C -42.320312 0.171875 -39.132812 -1.179688 -36.46875 -2.078125 C -34.957031 -2.429688 -32.878906 -2.675781 -30.234375 -2.8125 C -25.140625 -2.71875 -21.007812 -1.609375 -17.84375 0.515625 C -16.90625 1.296875 -16.019531 2.164062 -15.1875 3.125 C -14.363281 4.082031 -13.773438 5.132812 -13.421875 6.28125 C -13.066406 7.40625 -12.753906 8.488281 -12.484375 9.53125 C -12.222656 10.570312 -12.109375 11.847656 -12.140625 13.359375 L -12.734375 45.90625 C -12.953125 68.914062 -13.195312 82.394531 -13.46875 86.34375 C -13.90625 90.125 -14.285156 93.234375 -14.609375 95.671875 C -14.941406 98.117188 -15.300781 99.8125 -15.6875 100.75 C -16.28125 101.875 -17.289062 102.75 -18.71875 103.375 C -20.144531 104.007812 -21.90625 104.6875 -24 105.40625 Z M -160.484375 94.71875 C -159.171875 95.3125 -158.046875 95.613281 -157.109375 95.625 C -155.222656 95.664062 -154.070312 94.648438 -153.65625 92.578125 C -153.25 91.453125 -153.1875 90.742188 -153.46875 90.453125 C -153.75 90.171875 -154.351562 89.640625 -155.28125 88.859375 C -157.894531 87.503906 -160.800781 86.414062 -164 85.59375 C -167.375 84.394531 -169.265625 84.742188 -169.671875 86.640625 C -170.054688 87.191406 -168.945312 88.617188 -166.34375 90.921875 C -165.425781 91.703125 -164.453125 92.429688 -163.421875 93.109375 C -162.398438 93.785156 -161.421875 94.320312 -160.484375 94.71875 Z M -160.484375 94.71875 "/></g></g></g><g fill="#ffffff" fill-opacity="1"><g transform="translate(161.122806, 168.333297)"><g><path d="M -66.6875 103.5 L -77.4375 103.296875 L -86.78125 103.125 L -90.140625 101.9375 C -97.648438 99.726562 -102.988281 97.554688 -106.15625 95.421875 C -108.40625 94.066406 -110.363281 92.617188 -112.03125 91.078125 C -113.695312 89.535156 -115.269531 87.898438 -116.75 86.171875 C -122.820312 77.753906 -125.632812 66.382812 -125.1875 52.0625 C -124.894531 46.226562 -123.941406 40.585938 -122.328125 35.140625 C -120.722656 29.691406 -118.460938 24.632812 -115.546875 19.96875 C -112.628906 15.3125 -108.96875 11.273438 -104.5625 7.859375 C -100.164062 4.453125 -95.023438 1.859375 -89.140625 0.078125 C -88.191406 -0.285156 -86.957031 -0.59375 -85.4375 -0.84375 C -83.925781 -1.101562 -82.039062 -1.398438 -79.78125 -1.734375 L -72.953125 -3.3125 L -64.46875 -3.15625 C -47.5 -2.84375 -34.082031 1.3125 -24.21875 9.3125 C -14.363281 17.320312 -9.410156 30.289062 -9.359375 48.21875 C -9.171875 68.59375 -15.117188 84.238281 -27.203125 95.15625 C -29.503906 97.1875 -31.5625 98.796875 -33.375 99.984375 C -35.1875 101.179688 -37.035156 101.863281 -38.921875 102.03125 C -39.304688 102.394531 -40.015625 102.472656 -41.046875 102.265625 C -42.085938 102.066406 -43.363281 101.851562 -44.875 101.625 L -49.375 101.265625 L -53.640625 102.328125 C -55.910156 102.660156 -58.128906 102.898438 -60.296875 103.046875 C -62.472656 103.191406 -64.601562 103.34375 -66.6875 103.5 Z M -96.8125 94.453125 C -93.269531 96.785156 -91.273438 96.253906 -90.828125 92.859375 C -90.816406 92.296875 -91 91.820312 -91.375 91.4375 C -91.75 91.0625 -92.394531 90.390625 -93.3125 89.421875 C -95.164062 87.878906 -96.65625 86.863281 -97.78125 86.375 C -98.914062 85.882812 -100.707031 85.617188 -103.15625 85.578125 C -104.101562 85.929688 -104.347656 86.535156 -103.890625 87.390625 C -103.429688 88.253906 -102.375 89.644531 -100.71875 91.5625 C -99.789062 92.320312 -99.046875 92.894531 -98.484375 93.28125 C -97.921875 93.675781 -97.363281 94.066406 -96.8125 94.453125 Z M -73.8125 75.0625 C -70.988281 75.6875 -68.160156 75.878906 -65.328125 75.640625 C -62.492188 75.410156 -59.742188 74.847656 -57.078125 73.953125 C -56.703125 73.773438 -56.175781 73.265625 -55.5 72.421875 C -54.820312 71.585938 -54.050781 70.5625 -53.1875 69.34375 C -52.320312 68.132812 -51.5 66.878906 -50.71875 65.578125 C -49.9375 64.273438 -49.34375 63.054688 -48.9375 61.921875 C -46.988281 57.816406 -46.160156 53.210938 -46.453125 48.109375 C -46.367188 43.398438 -47.273438 38.953125 -49.171875 34.765625 C -51.066406 30.578125 -54.648438 27.96875 -59.921875 26.9375 C -61.984375 26.320312 -63.957031 26 -65.84375 25.96875 C -70.375 25.882812 -74.066406 26.570312 -76.921875 28.03125 C -79.773438 29.488281 -82.023438 31.476562 -83.671875 34 C -85.328125 36.519531 -86.46875 39.421875 -87.09375 42.703125 C -87.71875 45.992188 -88.066406 49.523438 -88.140625 53.296875 C -88.242188 59.148438 -87.5625 63.3125 -86.09375 65.78125 C -84.820312 68.257812 -83.160156 70.316406 -81.109375 71.953125 C -79.066406 73.597656 -76.632812 74.632812 -73.8125 75.0625 Z M -73.8125 75.0625 "/></g></g></g><g fill="#ffffff" fill-opacity="1"><g transform="translate(126.194348, 278.156731)"><g><path d="M 167.53125 38.484375 C 167.15625 39.992188 166.632812 41.3125 165.96875 42.4375 C 165.3125 43.570312 164.328125 44.894531 163.015625 46.40625 C 161.503906 48.289062 159.050781 50.507812 155.65625 53.0625 C 152.257812 55.613281 148.109375 58.488281 143.203125 61.6875 C 129.992188 69.800781 112.726562 75.367188 91.40625 78.390625 C 87.820312 78.765625 83.4375 79.046875 78.25 79.234375 C 73.0625 79.421875 67.070312 79.328125 60.28125 78.953125 C 44.425781 78.015625 29.378906 75.609375 15.140625 71.734375 C 0.898438 67.867188 -12.726562 61.125 -25.75 51.5 C -27.445312 49.988281 -28.769531 48.195312 -29.71875 46.125 C -30.46875 44.613281 -30.84375 42.445312 -30.84375 39.625 C -30.84375 38.113281 -30.65625 36.414062 -30.28125 34.53125 C -29.90625 33.582031 -29.671875 32.726562 -29.578125 31.96875 C -29.484375 31.21875 -29.34375 30.375 -29.15625 29.4375 C -28.582031 26.039062 -27.164062 23.207031 -24.90625 20.9375 L -22.640625 18.109375 L -19.25 18.390625 C -14.34375 18.960938 -7.644531 21.507812 0.84375 26.03125 C 3.488281 27.539062 5.09375 28.296875 5.65625 28.296875 C 6.226562 28.296875 6.515625 28.390625 6.515625 28.578125 C 6.703125 28.765625 7.078125 28.90625 7.640625 29 C 8.203125 29.101562 9.238281 29.4375 10.75 30 C 12.070312 30.375 13.203125 30.75 14.140625 31.125 C 15.085938 31.507812 15.75 31.796875 16.125 31.984375 C 17.070312 31.984375 17.734375 32.171875 18.109375 32.546875 C 19.054688 33.867188 25.660156 35.753906 37.921875 38.203125 C 48.296875 40.273438 58.484375 41.3125 68.484375 41.3125 C 80.554688 41.125 93.007812 39.144531 105.84375 35.375 C 118.675781 31.601562 130.1875 26.414062 140.375 19.8125 C 144.332031 16.976562 147.914062 15.5625 151.125 15.5625 C 154.332031 15.5625 157.632812 16.882812 161.03125 19.53125 C 163.101562 21.414062 164.707031 23.675781 165.84375 26.3125 C 167.726562 31.03125 168.289062 35.085938 167.53125 38.484375 Z M 161.3125 26.609375 C 160.9375 25.847656 160.367188 25.179688 159.609375 24.609375 C 158.859375 24.046875 157.914062 23.671875 156.78125 23.484375 C 156.40625 23.484375 156.125 23.53125 155.9375 23.625 C 155.75 23.71875 155.460938 23.957031 155.078125 24.34375 C 154.328125 24.90625 153.953125 25.847656 153.953125 27.171875 C 153.953125 28.679688 154.5625 30.285156 155.78125 31.984375 C 157.007812 33.679688 158.378906 34.53125 159.890625 34.53125 C 160.648438 34.53125 161.3125 33.867188 161.875 32.546875 C 162.632812 30.472656 162.445312 28.492188 161.3125 26.609375 Z M 161.3125 26.609375 "/></g></g></g></svg>