<svg xmlns="http://www.w3.org/2000/svg" xmlns:xlink="http://www.w3.org/1999/xlink" width="300" zoomAndPan="magnify" viewBox="0 0 224.87999 74.999997" height="100" preserveAspectRatio="xMidYMid meet" version="1.0"><defs><g/></defs><g fill="#5e17eb" fill-opacity="1"><g transform="translate(0.498415, 52.814821)"><g><path d="M 17.46875 -37.109375 C 17.789062 -37.109375 18.234375 -37.066406 18.796875 -36.984375 C 19.359375 -36.910156 19.929688 -36.789062 20.515625 -36.625 C 21.097656 -36.46875 21.640625 -36.296875 22.140625 -36.109375 C 22.640625 -35.929688 23.007812 -35.722656 23.25 -35.484375 C 23.695312 -34.960938 24.019531 -34.398438 24.21875 -33.796875 C 24.414062 -33.191406 24.414062 -32.609375 24.21875 -32.046875 C 23.976562 -31.171875 23.738281 -30.53125 23.5 -30.125 C 23.375 -29.925781 23.171875 -29.765625 22.890625 -29.640625 C 22.609375 -29.523438 22.304688 -29.40625 21.984375 -29.28125 C 21.628906 -29.195312 20.890625 -29.132812 19.765625 -29.09375 C 18.640625 -29.0625 17.914062 -29.003906 17.59375 -28.921875 C 17.070312 -28.640625 16.726562 -28.273438 16.5625 -27.828125 C 16.320312 -27.304688 16.285156 -26.304688 16.453125 -24.828125 C 16.492188 -24.222656 16.503906 -23.78125 16.484375 -23.5 C 16.460938 -23.21875 16.472656 -23.054688 16.515625 -23.015625 C 16.671875 -22.972656 16.96875 -22.921875 17.40625 -22.859375 C 17.851562 -22.804688 18.476562 -22.757812 19.28125 -22.71875 C 19.71875 -22.71875 20.195312 -22.6875 20.71875 -22.625 C 21.25 -22.5625 21.734375 -22.4375 22.171875 -22.25 C 22.609375 -22.070312 23 -21.820312 23.34375 -21.5 C 23.6875 -21.1875 23.921875 -20.769531 24.046875 -20.25 C 24.117188 -19.5625 24.175781 -18.9375 24.21875 -18.375 C 24.257812 -17.8125 24.179688 -17.347656 23.984375 -16.984375 C 23.421875 -15.941406 21.734375 -15.363281 18.921875 -15.25 C 18.160156 -15.207031 17.675781 -15.144531 17.46875 -15.0625 C 16.707031 -14.9375 16.265625 -14.695312 16.140625 -14.34375 C 16.109375 -14.300781 16.097656 -14.21875 16.109375 -14.09375 C 16.128906 -13.976562 16.125 -13.835938 16.09375 -13.671875 C 15.84375 -12.828125 15.757812 -11.0625 15.84375 -8.375 C 15.84375 -7.25 15.863281 -6.363281 15.90625 -5.71875 C 15.945312 -5.082031 15.925781 -4.601562 15.84375 -4.28125 C 15.800781 -3.914062 15.75 -3.582031 15.6875 -3.28125 C 15.632812 -2.976562 15.609375 -2.707031 15.609375 -2.46875 C 15.648438 -1.582031 15.53125 -0.941406 15.25 -0.546875 C 14.84375 0.0546875 14.078125 0.359375 12.953125 0.359375 C 12.796875 0.359375 12.535156 0.347656 12.171875 0.328125 C 11.804688 0.304688 11.429688 0.265625 11.046875 0.203125 C 10.671875 0.148438 10.320312 0.0820312 10 0 C 9.675781 -0.0820312 9.457031 -0.179688 9.34375 -0.296875 C 9.21875 -0.335938 9.132812 -0.476562 9.09375 -0.71875 C 8.894531 -1.207031 8.695312 -2.695312 8.5 -5.1875 C 8.375 -7.875 8.289062 -10 8.25 -11.5625 C 8.207031 -13.132812 8.171875 -14.179688 8.140625 -14.703125 L 8.140625 -15.1875 C 7.929688 -15.257812 6.925781 -15.316406 5.125 -15.359375 C 4.632812 -15.398438 4.195312 -15.453125 3.8125 -15.515625 C 3.4375 -15.578125 3.128906 -15.644531 2.890625 -15.71875 C 2.210938 -15.96875 1.769531 -16.269531 1.5625 -16.625 C 1.488281 -16.832031 1.453125 -17.066406 1.453125 -17.328125 C 1.453125 -17.585938 1.429688 -17.816406 1.390625 -18.015625 C 1.390625 -18.097656 1.367188 -18.1875 1.328125 -18.28125 C 1.285156 -18.382812 1.242188 -18.476562 1.203125 -18.5625 C 1.003906 -19.039062 1.046875 -19.640625 1.328125 -20.359375 C 1.410156 -20.640625 1.46875 -20.800781 1.5 -20.84375 C 1.625 -21.039062 1.859375 -21.207031 2.203125 -21.34375 C 2.546875 -21.488281 2.914062 -21.59375 3.3125 -21.65625 C 3.71875 -21.71875 4.117188 -21.757812 4.515625 -21.78125 C 4.921875 -21.800781 5.242188 -21.8125 5.484375 -21.8125 C 6.046875 -21.851562 6.503906 -21.875 6.859375 -21.875 C 7.222656 -21.875 7.46875 -21.972656 7.59375 -22.171875 C 7.914062 -22.410156 8.132812 -23.492188 8.25 -25.421875 C 8.332031 -27.347656 8.613281 -29.046875 9.09375 -30.515625 C 9.582031 -31.984375 10.285156 -33.21875 11.203125 -34.21875 C 12.890625 -36.144531 14.976562 -37.109375 17.46875 -37.109375 Z M 18.796875 -35.609375 L 18.5 -35.609375 L 18.5 -35.25 C 18.5 -34.96875 18.566406 -34.742188 18.703125 -34.578125 C 18.847656 -34.421875 19.019531 -34.300781 19.21875 -34.21875 C 19.257812 -34.175781 19.390625 -34.132812 19.609375 -34.09375 C 19.828125 -34.0625 20.066406 -34.046875 20.328125 -34.046875 C 20.585938 -34.046875 20.835938 -34.046875 21.078125 -34.046875 C 21.328125 -34.046875 21.507812 -34.046875 21.625 -34.046875 C 21.945312 -34.078125 22.117188 -34.191406 22.140625 -34.390625 C 22.160156 -34.597656 22.070312 -34.820312 21.875 -35.0625 C 21.59375 -35.34375 21.097656 -35.503906 20.390625 -35.546875 C 19.691406 -35.585938 19.160156 -35.609375 18.796875 -35.609375 Z M 18.796875 -35.609375 "/></g></g></g><g fill="#5e17eb" fill-opacity="1"><g transform="translate(23.029891, 52.814821)"><g><path d="M 13.015625 -22.109375 C 13.816406 -22.109375 14.546875 -21.976562 15.203125 -21.71875 C 15.867188 -21.457031 16.546875 -21.109375 17.234375 -20.671875 L 18.015625 -20.296875 L 18.5625 -20.78125 C 19.320312 -21.425781 20.445312 -21.75 21.9375 -21.75 C 22.375 -21.75 22.851562 -21.71875 23.375 -21.65625 C 23.894531 -21.59375 24.40625 -21.488281 24.90625 -21.34375 C 25.414062 -21.207031 25.867188 -21 26.265625 -20.71875 C 26.671875 -20.4375 26.953125 -20.054688 27.109375 -19.578125 C 27.148438 -19.460938 27.171875 -17.394531 27.171875 -13.375 C 27.171875 -8.113281 27.25 -5.320312 27.40625 -5 C 27.488281 -4.914062 27.570312 -4.210938 27.65625 -2.890625 L 27.71875 -1.078125 L 27.40625 -0.90625 C 26.925781 -0.457031 26.164062 -0.0351562 25.125 0.359375 C 24 0.765625 22.894531 0.882812 21.8125 0.71875 C 21.289062 0.5625 20.925781 0.363281 20.71875 0.125 C 20.519531 -0.113281 20.203125 -0.578125 19.765625 -1.265625 C 19.597656 -1.503906 19.414062 -1.773438 19.21875 -2.078125 C 19.019531 -2.378906 18.757812 -2.734375 18.4375 -3.140625 C 18.3125 -3.296875 18.109375 -3.375 17.828125 -3.375 C 17.390625 -3.289062 16.8125 -3.050781 16.09375 -2.65625 C 15.488281 -2.25 14.960938 -1.925781 14.515625 -1.6875 C 14.078125 -1.445312 13.71875 -1.242188 13.4375 -1.078125 C 12.550781 -0.722656 11.644531 -0.425781 10.71875 -0.1875 C 10.519531 -0.144531 10.300781 -0.113281 10.0625 -0.09375 C 9.820312 -0.0703125 9.582031 -0.0625 9.34375 -0.0625 C 7.65625 -0.0625 6.304688 -0.582031 5.296875 -1.625 C 4.296875 -2.664062 3.492188 -3.929688 2.890625 -5.421875 C 2.328125 -6.953125 1.972656 -8.519531 1.828125 -10.125 C 1.691406 -11.726562 1.828125 -13.394531 2.234375 -15.125 C 2.472656 -16.25 2.972656 -17.242188 3.734375 -18.109375 C 4.492188 -18.972656 5.394531 -19.703125 6.4375 -20.296875 C 7.488281 -20.898438 8.59375 -21.351562 9.75 -21.65625 C 10.914062 -21.957031 12.003906 -22.109375 13.015625 -22.109375 Z M 23.984375 -20.296875 C 23.816406 -20.335938 23.660156 -20.367188 23.515625 -20.390625 C 23.378906 -20.410156 23.210938 -20.441406 23.015625 -20.484375 L 22.359375 -20.484375 L 22.359375 -20.125 C 22.359375 -19.675781 22.5 -19.300781 22.78125 -19 C 23.0625 -18.707031 23.359375 -18.5625 23.671875 -18.5625 C 23.921875 -18.5625 24.203125 -18.679688 24.515625 -18.921875 C 24.835938 -19.160156 25 -19.359375 25 -19.515625 C 25 -19.835938 24.660156 -20.097656 23.984375 -20.296875 Z M 17.71875 -15.125 C 17.632812 -15.207031 17.070312 -15.066406 16.03125 -14.703125 C 12.9375 -13.773438 11.109375 -13.03125 10.546875 -12.46875 C 9.859375 -11.90625 9.515625 -10.960938 9.515625 -9.640625 C 9.597656 -7.710938 10.082031 -6.566406 10.96875 -6.203125 C 11.164062 -6.117188 11.382812 -6.078125 11.625 -6.078125 C 11.863281 -6.078125 12.085938 -6.078125 12.296875 -6.078125 C 13.171875 -6.078125 14.082031 -6.316406 15.03125 -6.796875 C 15.976562 -7.285156 16.789062 -7.8125 17.46875 -8.375 L 18.078125 -8.859375 L 18.078125 -9.703125 C 18.078125 -10.421875 18.054688 -11.140625 18.015625 -11.859375 C 17.972656 -12.585938 17.910156 -13.351562 17.828125 -14.15625 C 17.796875 -14.320312 17.78125 -14.460938 17.78125 -14.578125 C 17.78125 -14.703125 17.757812 -14.800781 17.71875 -14.875 C 17.71875 -14.957031 17.71875 -15.039062 17.71875 -15.125 Z M 17.71875 -15.125 "/></g></g></g><g fill="#5e17eb" fill-opacity="1"><g transform="translate(49.899018, 52.814821)"><g><path d="M 13.921875 0.125 C 9.785156 0.125 6.734375 -0.757812 4.765625 -2.53125 C 2.796875 -4.300781 1.8125 -7.191406 1.8125 -11.203125 C 1.8125 -11.929688 1.820312 -12.582031 1.84375 -13.15625 C 1.863281 -13.738281 1.929688 -14.234375 2.046875 -14.640625 C 2.972656 -17.492188 4.679688 -19.519531 7.171875 -20.71875 C 7.972656 -21.039062 8.773438 -21.3125 9.578125 -21.53125 C 10.378906 -21.757812 11.265625 -21.929688 12.234375 -22.046875 C 12.304688 -22.085938 12.445312 -22.109375 12.65625 -22.109375 C 12.695312 -22.109375 12.753906 -22.109375 12.828125 -22.109375 C 13.066406 -22.109375 13.488281 -22.109375 14.09375 -22.109375 C 14.695312 -22.109375 15.160156 -22.085938 15.484375 -22.046875 C 16.367188 -21.890625 17.222656 -21.679688 18.046875 -21.421875 C 18.867188 -21.160156 19.617188 -20.804688 20.296875 -20.359375 C 21.023438 -19.921875 21.519531 -19.539062 21.78125 -19.21875 C 22.039062 -18.894531 22.148438 -18.492188 22.109375 -18.015625 C 22.109375 -17.859375 22.097656 -17.71875 22.078125 -17.59375 C 22.054688 -17.46875 21.988281 -17.304688 21.875 -17.109375 C 21.789062 -16.867188 21.65625 -16.644531 21.46875 -16.4375 C 21.289062 -16.238281 21.101562 -16.082031 20.90625 -15.96875 C 20.300781 -15.488281 19.71875 -15.25 19.15625 -15.25 C 18.675781 -15.25 18.144531 -15.328125 17.5625 -15.484375 C 16.976562 -15.640625 16.46875 -15.800781 16.03125 -15.96875 C 15.507812 -16.125 15.066406 -16.222656 14.703125 -16.265625 C 13.898438 -16.304688 13.195312 -16.207031 12.59375 -15.96875 C 12.394531 -15.84375 12.125 -15.628906 11.78125 -15.328125 C 11.4375 -15.023438 11.222656 -14.816406 11.140625 -14.703125 C 10.941406 -14.378906 10.75 -14.003906 10.5625 -13.578125 C 10.382812 -13.160156 10.257812 -12.671875 10.1875 -12.109375 C 10.144531 -11.742188 10.125 -11.21875 10.125 -10.53125 C 10.125 -9.851562 10.144531 -9.351562 10.1875 -9.03125 C 10.257812 -8.71875 10.347656 -8.410156 10.453125 -8.109375 C 10.554688 -7.804688 10.644531 -7.535156 10.71875 -7.296875 C 10.84375 -7.015625 11.035156 -6.710938 11.296875 -6.390625 C 11.554688 -6.066406 11.804688 -5.84375 12.046875 -5.71875 C 12.523438 -5.519531 13.03125 -5.421875 13.5625 -5.421875 C 14.238281 -5.421875 15.007812 -5.550781 15.875 -5.8125 C 16.738281 -6.070312 17.472656 -6.34375 18.078125 -6.625 C 18.753906 -6.945312 19.191406 -7.128906 19.390625 -7.171875 C 19.597656 -7.210938 19.898438 -7.234375 20.296875 -7.234375 C 20.546875 -7.234375 20.757812 -7.210938 20.9375 -7.171875 C 21.113281 -7.128906 21.265625 -7.085938 21.390625 -7.046875 C 21.867188 -6.890625 22.28125 -6.707031 22.625 -6.5 C 22.96875 -6.300781 23.195312 -6.039062 23.3125 -5.71875 C 23.4375 -5.601562 23.5 -5.382812 23.5 -5.0625 C 23.5 -4.09375 23.132812 -3.285156 22.40625 -2.640625 C 21.6875 -2.003906 20.8125 -1.484375 19.78125 -1.078125 C 18.757812 -0.679688 17.707031 -0.390625 16.625 -0.203125 C 15.539062 -0.0234375 14.640625 0.0820312 13.921875 0.125 Z M 18.5 -20.671875 C 17.613281 -20.910156 17.171875 -20.75 17.171875 -20.1875 C 17.171875 -20.101562 17.332031 -19.953125 17.65625 -19.734375 C 17.976562 -19.515625 18.257812 -19.363281 18.5 -19.28125 C 18.820312 -19.113281 19.125 -19.007812 19.40625 -18.96875 C 19.6875 -18.9375 19.882812 -18.976562 20 -19.09375 C 20.164062 -19.257812 20.164062 -19.421875 20 -19.578125 C 19.84375 -20.023438 19.34375 -20.390625 18.5 -20.671875 Z M 18.5 -20.671875 "/></g></g></g><g fill="#5e17eb" fill-opacity="1"><g transform="translate(71.526812, 52.814821)"><g><path d="M 13.5 -22.046875 C 15.257812 -22.046875 16.921875 -21.882812 18.484375 -21.5625 C 20.054688 -21.25 21.523438 -20.488281 22.890625 -19.28125 C 23.578125 -18.632812 24.109375 -17.96875 24.484375 -17.28125 C 24.867188 -16.601562 25.101562 -15.882812 25.1875 -15.125 C 25.269531 -14.5625 25.28125 -14.023438 25.21875 -13.515625 C 25.15625 -13.015625 25.023438 -12.546875 24.828125 -12.109375 C 24.585938 -11.503906 24.253906 -11.019531 23.828125 -10.65625 C 23.410156 -10.300781 22.9375 -10.019531 22.40625 -9.8125 C 21.882812 -9.613281 21.320312 -9.472656 20.71875 -9.390625 C 20.125 -9.316406 19.546875 -9.257812 18.984375 -9.21875 C 18.210938 -9.175781 17.265625 -9.132812 16.140625 -9.09375 C 15.015625 -9.050781 13.691406 -9.03125 12.171875 -9.03125 C 11.085938 -9.03125 10.445312 -8.992188 10.25 -8.921875 L 9.9375 -8.859375 L 10.0625 -8.671875 C 10.144531 -8.148438 10.304688 -7.707031 10.546875 -7.34375 C 11.222656 -6.1875 12.75 -5.609375 15.125 -5.609375 C 15.445312 -5.609375 15.773438 -5.625 16.109375 -5.65625 C 16.453125 -5.695312 16.765625 -5.757812 17.046875 -5.84375 C 17.328125 -5.925781 17.71875 -6.023438 18.21875 -6.140625 C 18.726562 -6.265625 19.382812 -6.425781 20.1875 -6.625 C 20.539062 -6.789062 20.878906 -6.878906 21.203125 -6.890625 C 21.523438 -6.910156 21.804688 -6.921875 22.046875 -6.921875 C 22.328125 -6.890625 22.640625 -6.820312 22.984375 -6.71875 C 23.328125 -6.613281 23.679688 -6.484375 24.046875 -6.328125 C 24.160156 -6.242188 24.226562 -6.171875 24.25 -6.109375 C 24.269531 -6.054688 24.320312 -6.007812 24.40625 -5.96875 C 24.40625 -5.925781 24.40625 -5.84375 24.40625 -5.71875 C 24.40625 -5.601562 24.425781 -5.484375 24.46875 -5.359375 C 24.5 -5.160156 24.535156 -5 24.578125 -4.875 C 24.617188 -4.757812 24.640625 -4.660156 24.640625 -4.578125 C 24.640625 -4.054688 24.378906 -3.546875 23.859375 -3.046875 C 23.335938 -2.546875 22.710938 -2.101562 21.984375 -1.71875 C 21.265625 -1.332031 20.53125 -1.007812 19.78125 -0.75 C 19.039062 -0.488281 18.429688 -0.300781 17.953125 -0.1875 C 16.148438 0.175781 14.601562 0.359375 13.3125 0.359375 C 12.875 0.359375 12.34375 0.316406 11.71875 0.234375 C 11.09375 0.160156 10.445312 0.0664062 9.78125 -0.046875 C 9.125 -0.171875 8.492188 -0.3125 7.890625 -0.46875 C 7.285156 -0.632812 6.785156 -0.820312 6.390625 -1.03125 C 6.222656 -1.101562 6.03125 -1.226562 5.8125 -1.40625 C 5.59375 -1.59375 5.320312 -1.847656 5 -2.171875 C 4.195312 -2.773438 3.734375 -3.238281 3.609375 -3.5625 C 3.296875 -4 3.015625 -4.507812 2.765625 -5.09375 C 2.523438 -5.675781 2.285156 -6.347656 2.046875 -7.109375 L 1.8125 -7.953125 L 1.8125 -10.1875 C 1.8125 -11.507812 1.921875 -12.910156 2.140625 -14.390625 C 2.359375 -15.878906 2.910156 -17.148438 3.796875 -18.203125 C 5.078125 -19.847656 6.601562 -20.953125 8.375 -21.515625 C 9.21875 -21.710938 10.070312 -21.847656 10.9375 -21.921875 C 11.800781 -22.003906 12.65625 -22.046875 13.5 -22.046875 Z M 19.875 -20.78125 C 19.632812 -20.90625 19.335938 -20.882812 18.984375 -20.71875 L 18.796875 -20.359375 L 18.859375 -20.1875 C 18.941406 -19.976562 19.019531 -19.800781 19.09375 -19.65625 C 19.175781 -19.519531 19.335938 -19.414062 19.578125 -19.34375 C 19.773438 -19.257812 19.972656 -19.195312 20.171875 -19.15625 C 20.378906 -19.113281 20.625 -19.132812 20.90625 -19.21875 L 21.203125 -19.28125 L 21.203125 -19.453125 C 21.128906 -19.941406 20.6875 -20.382812 19.875 -20.78125 Z M 15.359375 -16.8125 C 15.003906 -16.925781 14.703125 -16.925781 14.453125 -16.8125 C 13.691406 -16.8125 12.890625 -16.691406 12.046875 -16.453125 C 11.566406 -16.242188 11.226562 -15.878906 11.03125 -15.359375 C 10.789062 -15.117188 10.707031 -14.816406 10.78125 -14.453125 C 10.78125 -14.296875 10.789062 -14.175781 10.8125 -14.09375 C 10.832031 -14.019531 10.84375 -13.960938 10.84375 -13.921875 C 10.84375 -13.878906 11.847656 -13.859375 13.859375 -13.859375 C 14.660156 -13.859375 15.3125 -13.859375 15.8125 -13.859375 C 16.3125 -13.859375 16.664062 -13.878906 16.875 -13.921875 C 17.226562 -13.992188 17.488281 -14.113281 17.65625 -14.28125 C 17.851562 -14.4375 17.953125 -14.632812 17.953125 -14.875 C 17.953125 -15.082031 17.910156 -15.273438 17.828125 -15.453125 C 17.753906 -15.628906 17.675781 -15.800781 17.59375 -15.96875 C 17.15625 -16.40625 16.410156 -16.6875 15.359375 -16.8125 Z M 15.359375 -16.8125 "/></g></g></g><g fill="#5e17eb" fill-opacity="1"><g transform="translate(95.142701, 52.814821)"><g><path d="M 4.703125 -22.53125 C 5.265625 -22.65625 5.722656 -22.71875 6.078125 -22.71875 C 6.722656 -22.675781 7.390625 -22.515625 8.078125 -22.234375 C 8.835938 -21.992188 9.457031 -21.648438 9.9375 -21.203125 C 10.175781 -21.046875 10.316406 -20.96875 10.359375 -20.96875 C 10.679688 -20.96875 11.222656 -21.148438 11.984375 -21.515625 C 12.910156 -21.953125 13.863281 -22.238281 14.84375 -22.375 C 15.832031 -22.519531 16.847656 -22.59375 17.890625 -22.59375 C 18.972656 -22.550781 19.675781 -22.453125 20 -22.296875 C 20.476562 -22.210938 20.976562 -22.0625 21.5 -21.84375 C 22.03125 -21.625 22.554688 -21.289062 23.078125 -20.84375 L 23.671875 -20.359375 L 24.046875 -20.671875 C 24.722656 -20.984375 25.410156 -21.269531 26.109375 -21.53125 C 26.816406 -21.800781 27.550781 -22.015625 28.3125 -22.171875 C 28.550781 -22.210938 28.851562 -22.242188 29.21875 -22.265625 C 29.582031 -22.285156 30.023438 -22.296875 30.546875 -22.296875 C 31.710938 -22.296875 32.867188 -22.113281 34.015625 -21.75 C 35.160156 -21.382812 36.132812 -20.757812 36.9375 -19.875 C 37.332031 -19.476562 37.648438 -18.976562 37.890625 -18.375 C 38.140625 -17.769531 38.332031 -17.132812 38.46875 -16.46875 C 38.613281 -15.8125 38.710938 -15.140625 38.765625 -14.453125 C 38.828125 -13.773438 38.859375 -13.15625 38.859375 -12.59375 C 38.984375 -7.332031 38.785156 -3.738281 38.265625 -1.8125 C 37.660156 -0.0390625 36.515625 0.84375 34.828125 0.84375 C 34.503906 0.84375 34.128906 0.8125 33.703125 0.75 C 33.285156 0.6875 32.957031 0.578125 32.71875 0.421875 C 32.3125 0.179688 31.796875 -0.132812 31.171875 -0.53125 C 30.554688 -0.9375 30.226562 -1.421875 30.1875 -1.984375 C 30.144531 -2.429688 30.125 -3.046875 30.125 -3.828125 C 30.125 -4.609375 30.164062 -5.539062 30.25 -6.625 C 30.363281 -7.914062 30.421875 -9.222656 30.421875 -10.546875 C 30.421875 -12.304688 30.34375 -13.53125 30.1875 -14.21875 C 30.144531 -14.863281 29.984375 -15.328125 29.703125 -15.609375 C 29.617188 -15.648438 29.546875 -15.6875 29.484375 -15.71875 C 29.429688 -15.757812 29.34375 -15.800781 29.21875 -15.84375 C 28.976562 -15.96875 28.695312 -16.03125 28.375 -16.03125 C 27.894531 -16.03125 27.351562 -15.898438 26.75 -15.640625 C 26.144531 -15.378906 25.5625 -14.984375 25 -14.453125 L 24.703125 -14.15625 L 24.703125 -9.40625 C 24.703125 -8 24.703125 -6.84375 24.703125 -5.9375 C 24.703125 -5.03125 24.679688 -4.375 24.640625 -3.96875 C 24.640625 -3.53125 24.628906 -3.109375 24.609375 -2.703125 C 24.585938 -2.304688 24.554688 -1.890625 24.515625 -1.453125 C 24.316406 -1.003906 24.085938 -0.648438 23.828125 -0.390625 C 23.566406 -0.128906 23.253906 0.0976562 22.890625 0.296875 C 22.367188 0.503906 21.75 0.609375 21.03125 0.609375 C 20.46875 0.609375 19.984375 0.566406 19.578125 0.484375 C 19.253906 0.316406 18.929688 0.113281 18.609375 -0.125 C 18.296875 -0.363281 17.796875 -0.664062 17.109375 -1.03125 C 16.828125 -1.707031 16.726562 -2.726562 16.8125 -4.09375 C 16.894531 -4.78125 16.941406 -5.582031 16.953125 -6.5 C 16.972656 -7.425781 16.984375 -8.492188 16.984375 -9.703125 L 16.984375 -12.890625 C 16.910156 -13.691406 16.832031 -14.300781 16.75 -14.71875 C 16.664062 -15.144531 16.523438 -15.441406 16.328125 -15.609375 C 15.960938 -15.890625 15.320312 -16.03125 14.40625 -16.03125 C 13.800781 -16.03125 13.175781 -15.90625 12.53125 -15.65625 C 11.882812 -15.414062 11.523438 -14.9375 11.453125 -14.21875 C 11.367188 -14.019531 11.347656 -13.804688 11.390625 -13.578125 C 11.429688 -13.359375 11.410156 -13.148438 11.328125 -12.953125 C 11.242188 -12.390625 11.191406 -11.675781 11.171875 -10.8125 C 11.148438 -9.945312 11.160156 -8.914062 11.203125 -7.71875 C 11.203125 -6.1875 11.191406 -4.96875 11.171875 -4.0625 C 11.148438 -3.164062 11.125 -2.554688 11.09375 -2.234375 C 11.007812 -1.546875 10.570312 -1 9.78125 -0.59375 C 9 -0.195312 8.328125 0.0976562 7.765625 0.296875 C 7.453125 0.378906 7.015625 0.441406 6.453125 0.484375 C 5.359375 0.484375 4.472656 0.257812 3.796875 -0.1875 C 3.597656 -0.34375 3.40625 -0.519531 3.21875 -0.71875 C 3.039062 -0.925781 2.910156 -1.148438 2.828125 -1.390625 C 2.753906 -1.628906 2.6875 -1.859375 2.625 -2.078125 C 2.5625 -2.296875 2.53125 -2.566406 2.53125 -2.890625 L 2.53125 -9.828125 C 2.488281 -14.722656 2.488281 -17.59375 2.53125 -18.4375 C 2.613281 -19.238281 2.679688 -19.898438 2.734375 -20.421875 C 2.796875 -20.941406 2.867188 -21.304688 2.953125 -21.515625 C 3.078125 -21.753906 3.285156 -21.941406 3.578125 -22.078125 C 3.878906 -22.222656 4.253906 -22.375 4.703125 -22.53125 Z M 33.796875 -20.78125 C 33.515625 -20.90625 33.273438 -20.96875 33.078125 -20.96875 C 32.671875 -20.96875 32.429688 -20.742188 32.359375 -20.296875 C 32.273438 -20.054688 32.265625 -19.90625 32.328125 -19.84375 C 32.390625 -19.789062 32.519531 -19.679688 32.71875 -19.515625 C 33.28125 -19.234375 33.898438 -19.015625 34.578125 -18.859375 C 35.304688 -18.617188 35.707031 -18.695312 35.78125 -19.09375 C 35.863281 -19.21875 35.625 -19.519531 35.0625 -20 C 34.863281 -20.164062 34.648438 -20.316406 34.421875 -20.453125 C 34.203125 -20.597656 33.992188 -20.707031 33.796875 -20.78125 Z M 33.796875 -20.78125 "/></g></g></g><g fill="#5e17eb" fill-opacity="1"><g transform="translate(133.157194, 52.814821)"><g><path d="M 13.796875 -22.296875 L 18.078125 -22.296875 L 18.796875 -22.046875 C 20.398438 -21.609375 21.546875 -21.164062 22.234375 -20.71875 C 22.710938 -20.4375 23.132812 -20.132812 23.5 -19.8125 C 23.863281 -19.5 24.203125 -19.160156 24.515625 -18.796875 C 25.847656 -17.023438 26.492188 -14.613281 26.453125 -11.5625 C 26.410156 -10.320312 26.226562 -9.117188 25.90625 -7.953125 C 25.582031 -6.785156 25.117188 -5.695312 24.515625 -4.6875 C 23.921875 -3.6875 23.160156 -2.816406 22.234375 -2.078125 C 21.304688 -1.335938 20.222656 -0.765625 18.984375 -0.359375 C 18.773438 -0.273438 18.507812 -0.203125 18.1875 -0.140625 C 17.875 -0.0859375 17.472656 -0.0195312 16.984375 0.0625 L 15.546875 0.421875 L 13.734375 0.421875 C 10.117188 0.421875 7.242188 -0.410156 5.109375 -2.078125 C 2.984375 -3.742188 1.882812 -6.484375 1.8125 -10.296875 C 1.6875 -14.640625 2.890625 -17.992188 5.421875 -20.359375 C 5.898438 -20.804688 6.332031 -21.160156 6.71875 -21.421875 C 7.101562 -21.679688 7.492188 -21.832031 7.890625 -21.875 C 7.972656 -21.945312 8.125 -21.960938 8.34375 -21.921875 C 8.5625 -21.890625 8.832031 -21.851562 9.15625 -21.8125 L 10.125 -21.75 L 11.03125 -21.984375 C 11.507812 -22.066406 11.976562 -22.128906 12.4375 -22.171875 C 12.90625 -22.210938 13.359375 -22.253906 13.796875 -22.296875 Z M 20.25 -20.484375 C 19.476562 -20.960938 19.054688 -20.84375 18.984375 -20.125 C 18.984375 -20 19.019531 -19.894531 19.09375 -19.8125 C 19.175781 -19.738281 19.316406 -19.601562 19.515625 -19.40625 C 19.921875 -19.082031 20.242188 -18.867188 20.484375 -18.765625 C 20.722656 -18.671875 21.101562 -18.625 21.625 -18.625 C 21.832031 -18.695312 21.882812 -18.820312 21.78125 -19 C 21.675781 -19.1875 21.445312 -19.476562 21.09375 -19.875 C 20.882812 -20.039062 20.71875 -20.160156 20.59375 -20.234375 C 20.476562 -20.316406 20.363281 -20.398438 20.25 -20.484375 Z M 15.421875 -16.265625 C 14.816406 -16.390625 14.210938 -16.421875 13.609375 -16.359375 C 13.015625 -16.296875 12.4375 -16.164062 11.875 -15.96875 C 11.789062 -15.925781 11.675781 -15.8125 11.53125 -15.625 C 11.394531 -15.445312 11.234375 -15.226562 11.046875 -14.96875 C 10.867188 -14.707031 10.695312 -14.4375 10.53125 -14.15625 C 10.375 -13.875 10.257812 -13.613281 10.1875 -13.375 C 9.78125 -12.488281 9.617188 -11.503906 9.703125 -10.421875 C 9.703125 -9.421875 9.910156 -8.476562 10.328125 -7.59375 C 10.753906 -6.707031 11.53125 -6.164062 12.65625 -5.96875 C 13.09375 -5.84375 13.515625 -5.78125 13.921875 -5.78125 C 14.878906 -5.78125 15.660156 -5.941406 16.265625 -6.265625 C 16.867188 -6.585938 17.34375 -7.019531 17.6875 -7.5625 C 18.03125 -8.101562 18.257812 -8.722656 18.375 -9.421875 C 18.5 -10.128906 18.5625 -10.882812 18.5625 -11.6875 C 18.5625 -12.9375 18.398438 -13.820312 18.078125 -14.34375 C 17.796875 -14.863281 17.429688 -15.289062 16.984375 -15.625 C 16.546875 -15.96875 16.023438 -16.179688 15.421875 -16.265625 Z M 15.421875 -16.265625 "/></g></g></g><g fill="#5e17eb" fill-opacity="1"><g transform="translate(158.09847, 52.814821)"><g><path d="M 4.703125 -22.53125 C 5.265625 -22.65625 5.722656 -22.71875 6.078125 -22.71875 C 6.722656 -22.675781 7.390625 -22.515625 8.078125 -22.234375 C 8.835938 -21.992188 9.457031 -21.648438 9.9375 -21.203125 C 10.175781 -21.046875 10.316406 -20.96875 10.359375 -20.96875 C 10.679688 -20.96875 11.222656 -21.148438 11.984375 -21.515625 C 12.910156 -21.953125 13.863281 -22.238281 14.84375 -22.375 C 15.832031 -22.519531 16.847656 -22.59375 17.890625 -22.59375 C 18.972656 -22.550781 19.675781 -22.453125 20 -22.296875 C 20.476562 -22.210938 20.976562 -22.0625 21.5 -21.84375 C 22.03125 -21.625 22.554688 -21.289062 23.078125 -20.84375 L 23.671875 -20.359375 L 24.046875 -20.671875 C 24.722656 -20.984375 25.410156 -21.269531 26.109375 -21.53125 C 26.816406 -21.800781 27.550781 -22.015625 28.3125 -22.171875 C 28.550781 -22.210938 28.851562 -22.242188 29.21875 -22.265625 C 29.582031 -22.285156 30.023438 -22.296875 30.546875 -22.296875 C 31.710938 -22.296875 32.867188 -22.113281 34.015625 -21.75 C 35.160156 -21.382812 36.132812 -20.757812 36.9375 -19.875 C 37.332031 -19.476562 37.648438 -18.976562 37.890625 -18.375 C 38.140625 -17.769531 38.332031 -17.132812 38.46875 -16.46875 C 38.613281 -15.8125 38.710938 -15.140625 38.765625 -14.453125 C 38.828125 -13.773438 38.859375 -13.15625 38.859375 -12.59375 C 38.984375 -7.332031 38.785156 -3.738281 38.265625 -1.8125 C 37.660156 -0.0390625 36.515625 0.84375 34.828125 0.84375 C 34.503906 0.84375 34.128906 0.8125 33.703125 0.75 C 33.285156 0.6875 32.957031 0.578125 32.71875 0.421875 C 32.3125 0.179688 31.796875 -0.132812 31.171875 -0.53125 C 30.554688 -0.9375 30.226562 -1.421875 30.1875 -1.984375 C 30.144531 -2.429688 30.125 -3.046875 30.125 -3.828125 C 30.125 -4.609375 30.164062 -5.539062 30.25 -6.625 C 30.363281 -7.914062 30.421875 -9.222656 30.421875 -10.546875 C 30.421875 -12.304688 30.34375 -13.53125 30.1875 -14.21875 C 30.144531 -14.863281 29.984375 -15.328125 29.703125 -15.609375 C 29.617188 -15.648438 29.546875 -15.6875 29.484375 -15.71875 C 29.429688 -15.757812 29.34375 -15.800781 29.21875 -15.84375 C 28.976562 -15.96875 28.695312 -16.03125 28.375 -16.03125 C 27.894531 -16.03125 27.351562 -15.898438 26.75 -15.640625 C 26.144531 -15.378906 25.5625 -14.984375 25 -14.453125 L 24.703125 -14.15625 L 24.703125 -9.40625 C 24.703125 -8 24.703125 -6.84375 24.703125 -5.9375 C 24.703125 -5.03125 24.679688 -4.375 24.640625 -3.96875 C 24.640625 -3.53125 24.628906 -3.109375 24.609375 -2.703125 C 24.585938 -2.304688 24.554688 -1.890625 24.515625 -1.453125 C 24.316406 -1.003906 24.085938 -0.648438 23.828125 -0.390625 C 23.566406 -0.128906 23.253906 0.0976562 22.890625 0.296875 C 22.367188 0.503906 21.75 0.609375 21.03125 0.609375 C 20.46875 0.609375 19.984375 0.566406 19.578125 0.484375 C 19.253906 0.316406 18.929688 0.113281 18.609375 -0.125 C 18.296875 -0.363281 17.796875 -0.664062 17.109375 -1.03125 C 16.828125 -1.707031 16.726562 -2.726562 16.8125 -4.09375 C 16.894531 -4.78125 16.941406 -5.582031 16.953125 -6.5 C 16.972656 -7.425781 16.984375 -8.492188 16.984375 -9.703125 L 16.984375 -12.890625 C 16.910156 -13.691406 16.832031 -14.300781 16.75 -14.71875 C 16.664062 -15.144531 16.523438 -15.441406 16.328125 -15.609375 C 15.960938 -15.890625 15.320312 -16.03125 14.40625 -16.03125 C 13.800781 -16.03125 13.175781 -15.90625 12.53125 -15.65625 C 11.882812 -15.414062 11.523438 -14.9375 11.453125 -14.21875 C 11.367188 -14.019531 11.347656 -13.804688 11.390625 -13.578125 C 11.429688 -13.359375 11.410156 -13.148438 11.328125 -12.953125 C 11.242188 -12.390625 11.191406 -11.675781 11.171875 -10.8125 C 11.148438 -9.945312 11.160156 -8.914062 11.203125 -7.71875 C 11.203125 -6.1875 11.191406 -4.96875 11.171875 -4.0625 C 11.148438 -3.164062 11.125 -2.554688 11.09375 -2.234375 C 11.007812 -1.546875 10.570312 -1 9.78125 -0.59375 C 9 -0.195312 8.328125 0.0976562 7.765625 0.296875 C 7.453125 0.378906 7.015625 0.441406 6.453125 0.484375 C 5.359375 0.484375 4.472656 0.257812 3.796875 -0.1875 C 3.597656 -0.34375 3.40625 -0.519531 3.21875 -0.71875 C 3.039062 -0.925781 2.910156 -1.148438 2.828125 -1.390625 C 2.753906 -1.628906 2.6875 -1.859375 2.625 -2.078125 C 2.5625 -2.296875 2.53125 -2.566406 2.53125 -2.890625 L 2.53125 -9.828125 C 2.488281 -14.722656 2.488281 -17.59375 2.53125 -18.4375 C 2.613281 -19.238281 2.679688 -19.898438 2.734375 -20.421875 C 2.796875 -20.941406 2.867188 -21.304688 2.953125 -21.515625 C 3.078125 -21.753906 3.285156 -21.941406 3.578125 -22.078125 C 3.878906 -22.222656 4.253906 -22.375 4.703125 -22.53125 Z M 33.796875 -20.78125 C 33.515625 -20.90625 33.273438 -20.96875 33.078125 -20.96875 C 32.671875 -20.96875 32.429688 -20.742188 32.359375 -20.296875 C 32.273438 -20.054688 32.265625 -19.90625 32.328125 -19.84375 C 32.390625 -19.789062 32.519531 -19.679688 32.71875 -19.515625 C 33.28125 -19.234375 33.898438 -19.015625 34.578125 -18.859375 C 35.304688 -18.617188 35.707031 -18.695312 35.78125 -19.09375 C 35.863281 -19.21875 35.625 -19.519531 35.0625 -20 C 34.863281 -20.164062 34.648438 -20.316406 34.421875 -20.453125 C 34.203125 -20.597656 33.992188 -20.707031 33.796875 -20.78125 Z M 33.796875 -20.78125 "/></g></g></g><g fill="#5e17eb" fill-opacity="1"><g transform="translate(196.112954, 52.814821)"><g><path d="M 13.796875 -22.296875 L 18.078125 -22.296875 L 18.796875 -22.046875 C 20.398438 -21.609375 21.546875 -21.164062 22.234375 -20.71875 C 22.710938 -20.4375 23.132812 -20.132812 23.5 -19.8125 C 23.863281 -19.5 24.203125 -19.160156 24.515625 -18.796875 C 25.847656 -17.023438 26.492188 -14.613281 26.453125 -11.5625 C 26.410156 -10.320312 26.226562 -9.117188 25.90625 -7.953125 C 25.582031 -6.785156 25.117188 -5.695312 24.515625 -4.6875 C 23.921875 -3.6875 23.160156 -2.816406 22.234375 -2.078125 C 21.304688 -1.335938 20.222656 -0.765625 18.984375 -0.359375 C 18.773438 -0.273438 18.507812 -0.203125 18.1875 -0.140625 C 17.875 -0.0859375 17.472656 -0.0195312 16.984375 0.0625 L 15.546875 0.421875 L 13.734375 0.421875 C 10.117188 0.421875 7.242188 -0.410156 5.109375 -2.078125 C 2.984375 -3.742188 1.882812 -6.484375 1.8125 -10.296875 C 1.6875 -14.640625 2.890625 -17.992188 5.421875 -20.359375 C 5.898438 -20.804688 6.332031 -21.160156 6.71875 -21.421875 C 7.101562 -21.679688 7.492188 -21.832031 7.890625 -21.875 C 7.972656 -21.945312 8.125 -21.960938 8.34375 -21.921875 C 8.5625 -21.890625 8.832031 -21.851562 9.15625 -21.8125 L 10.125 -21.75 L 11.03125 -21.984375 C 11.507812 -22.066406 11.976562 -22.128906 12.4375 -22.171875 C 12.90625 -22.210938 13.359375 -22.253906 13.796875 -22.296875 Z M 20.25 -20.484375 C 19.476562 -20.960938 19.054688 -20.84375 18.984375 -20.125 C 18.984375 -20 19.019531 -19.894531 19.09375 -19.8125 C 19.175781 -19.738281 19.316406 -19.601562 19.515625 -19.40625 C 19.921875 -19.082031 20.242188 -18.867188 20.484375 -18.765625 C 20.722656 -18.671875 21.101562 -18.625 21.625 -18.625 C 21.832031 -18.695312 21.882812 -18.820312 21.78125 -19 C 21.675781 -19.1875 21.445312 -19.476562 21.09375 -19.875 C 20.882812 -20.039062 20.71875 -20.160156 20.59375 -20.234375 C 20.476562 -20.316406 20.363281 -20.398438 20.25 -20.484375 Z M 15.421875 -16.265625 C 14.816406 -16.390625 14.210938 -16.421875 13.609375 -16.359375 C 13.015625 -16.296875 12.4375 -16.164062 11.875 -15.96875 C 11.789062 -15.925781 11.675781 -15.8125 11.53125 -15.625 C 11.394531 -15.445312 11.234375 -15.226562 11.046875 -14.96875 C 10.867188 -14.707031 10.695312 -14.4375 10.53125 -14.15625 C 10.375 -13.875 10.257812 -13.613281 10.1875 -13.375 C 9.78125 -12.488281 9.617188 -11.503906 9.703125 -10.421875 C 9.703125 -9.421875 9.910156 -8.476562 10.328125 -7.59375 C 10.753906 -6.707031 11.53125 -6.164062 12.65625 -5.96875 C 13.09375 -5.84375 13.515625 -5.78125 13.921875 -5.78125 C 14.878906 -5.78125 15.660156 -5.941406 16.265625 -6.265625 C 16.867188 -6.585938 17.34375 -7.019531 17.6875 -7.5625 C 18.03125 -8.101562 18.257812 -8.722656 18.375 -9.421875 C 18.5 -10.128906 18.5625 -10.882812 18.5625 -11.6875 C 18.5625 -12.9375 18.398438 -13.820312 18.078125 -14.34375 C 17.796875 -14.863281 17.429688 -15.289062 16.984375 -15.625 C 16.546875 -15.96875 16.023438 -16.179688 15.421875 -16.265625 Z M 15.421875 -16.265625 "/></g></g></g><g fill="#5e17eb" fill-opacity="1"><g transform="translate(166.075364, 51.141698)"><g><path d="M 34.65625 7.140625 C 34.59375 7.453125 34.492188 7.726562 34.359375 7.96875 C 34.234375 8.207031 34.035156 8.484375 33.765625 8.796875 C 33.472656 9.191406 32.976562 9.660156 32.28125 10.203125 C 31.59375 10.742188 30.753906 11.351562 29.765625 12.03125 C 27.085938 13.769531 23.5625 15 19.1875 15.71875 C 18.457031 15.8125 17.554688 15.890625 16.484375 15.953125 C 15.421875 16.015625 14.1875 16.023438 12.78125 15.984375 C 9.507812 15.859375 6.398438 15.429688 3.453125 14.703125 C 0.503906 13.972656 -2.332031 12.648438 -5.0625 10.734375 C -5.414062 10.421875 -5.695312 10.054688 -5.90625 9.640625 C -6.070312 9.328125 -6.160156 8.878906 -6.171875 8.296875 C -6.179688 7.984375 -6.148438 7.632812 -6.078125 7.25 C -6.003906 7.050781 -5.957031 6.875 -5.9375 6.71875 C -5.925781 6.570312 -5.898438 6.398438 -5.859375 6.203125 C -5.765625 5.492188 -5.488281 4.898438 -5.03125 4.421875 L -4.578125 3.84375 L -3.890625 3.875 C -2.867188 3.976562 -1.472656 4.472656 0.296875 5.359375 C 0.835938 5.660156 1.164062 5.804688 1.28125 5.796875 C 1.40625 5.796875 1.472656 5.816406 1.484375 5.859375 C 1.523438 5.890625 1.601562 5.910156 1.71875 5.921875 C 1.832031 5.941406 2.046875 6.007812 2.359375 6.125 C 2.628906 6.195312 2.859375 6.269531 3.046875 6.34375 C 3.242188 6.414062 3.390625 6.46875 3.484375 6.5 C 3.671875 6.5 3.804688 6.539062 3.890625 6.625 C 4.078125 6.882812 5.441406 7.242188 7.984375 7.703125 C 10.128906 8.078125 12.234375 8.242188 14.296875 8.203125 C 16.773438 8.097656 19.328125 7.628906 21.953125 6.796875 C 24.585938 5.960938 26.9375 4.835938 29 3.421875 C 29.789062 2.816406 30.519531 2.507812 31.1875 2.5 C 31.84375 2.476562 32.523438 2.734375 33.234375 3.265625 C 33.671875 3.648438 34.015625 4.113281 34.265625 4.65625 C 34.671875 5.613281 34.800781 6.441406 34.65625 7.140625 Z M 33.328125 4.734375 C 33.253906 4.578125 33.132812 4.441406 32.96875 4.328125 C 32.8125 4.210938 32.613281 4.140625 32.375 4.109375 C 32.300781 4.109375 32.242188 4.117188 32.203125 4.140625 C 32.160156 4.160156 32.101562 4.210938 32.03125 4.296875 C 31.882812 4.410156 31.8125 4.601562 31.8125 4.875 C 31.820312 5.1875 31.957031 5.515625 32.21875 5.859375 C 32.476562 6.203125 32.757812 6.367188 33.0625 6.359375 C 33.21875 6.359375 33.359375 6.222656 33.484375 5.953125 C 33.617188 5.515625 33.566406 5.109375 33.328125 4.734375 Z M 33.328125 4.734375 "/></g></g></g><g fill="#5e17eb" fill-opacity="1"><g transform="translate(101.940462, 50.863399)"><g><path d="M 34.203125 7.859375 C 34.128906 8.171875 34.023438 8.441406 33.890625 8.671875 C 33.753906 8.898438 33.550781 9.164062 33.28125 9.46875 C 32.96875 9.851562 32.460938 10.304688 31.765625 10.828125 C 31.078125 11.347656 30.234375 11.9375 29.234375 12.59375 C 26.535156 14.25 23.007812 15.382812 18.65625 16 C 17.925781 16.082031 17.03125 16.140625 15.96875 16.171875 C 14.914062 16.210938 13.695312 16.195312 12.3125 16.125 C 9.070312 15.925781 6 15.429688 3.09375 14.640625 C 0.1875 13.859375 -2.597656 12.484375 -5.265625 10.515625 C -5.609375 10.203125 -5.875 9.835938 -6.0625 9.421875 C -6.21875 9.109375 -6.296875 8.664062 -6.296875 8.09375 C -6.296875 7.78125 -6.257812 7.429688 -6.1875 7.046875 C -6.101562 6.859375 -6.050781 6.6875 -6.03125 6.53125 C -6.019531 6.375 -5.992188 6.203125 -5.953125 6.015625 C -5.835938 5.316406 -5.546875 4.738281 -5.078125 4.28125 L -4.625 3.703125 L -3.921875 3.75 C -2.921875 3.863281 -1.554688 4.382812 0.171875 5.3125 C 0.710938 5.625 1.039062 5.78125 1.15625 5.78125 C 1.269531 5.78125 1.328125 5.796875 1.328125 5.828125 C 1.367188 5.867188 1.445312 5.898438 1.5625 5.921875 C 1.675781 5.941406 1.890625 6.007812 2.203125 6.125 C 2.460938 6.195312 2.6875 6.269531 2.875 6.34375 C 3.070312 6.425781 3.210938 6.488281 3.296875 6.53125 C 3.484375 6.53125 3.617188 6.566406 3.703125 6.640625 C 3.890625 6.910156 5.238281 7.296875 7.75 7.796875 C 9.863281 8.222656 11.941406 8.4375 13.984375 8.4375 C 16.453125 8.394531 18.992188 7.988281 21.609375 7.21875 C 24.234375 6.445312 26.582031 5.390625 28.65625 4.046875 C 29.46875 3.460938 30.203125 3.171875 30.859375 3.171875 C 31.515625 3.171875 32.1875 3.441406 32.875 3.984375 C 33.300781 4.367188 33.628906 4.832031 33.859375 5.375 C 34.242188 6.332031 34.359375 7.160156 34.203125 7.859375 Z M 32.9375 5.4375 C 32.851562 5.28125 32.734375 5.144531 32.578125 5.03125 C 32.429688 4.914062 32.242188 4.835938 32.015625 4.796875 C 31.929688 4.796875 31.867188 4.804688 31.828125 4.828125 C 31.796875 4.847656 31.742188 4.894531 31.671875 4.96875 C 31.515625 5.082031 31.4375 5.273438 31.4375 5.546875 C 31.4375 5.859375 31.5625 6.1875 31.8125 6.53125 C 32.0625 6.875 32.335938 7.046875 32.640625 7.046875 C 32.796875 7.046875 32.929688 6.910156 33.046875 6.640625 C 33.203125 6.222656 33.164062 5.820312 32.9375 5.4375 Z M 32.9375 5.4375 "/></g></g></g></svg>