<svg xmlns="http://www.w3.org/2000/svg" xmlns:xlink="http://www.w3.org/1999/xlink" width="500" zoomAndPan="magnify" viewBox="0 0 375 374.999991" height="500" preserveAspectRatio="xMidYMid meet" version="1.0"><defs><g/></defs><g fill="#5e17eb" fill-opacity="1"><g transform="translate(13.612146, 198.032161)"><g><path d="M 27.5 -58.40625 C 28 -58.40625 28.691406 -58.34375 29.578125 -58.21875 C 30.460938 -58.09375 31.363281 -57.898438 32.28125 -57.640625 C 33.195312 -57.390625 34.050781 -57.117188 34.84375 -56.828125 C 35.632812 -56.546875 36.21875 -56.21875 36.59375 -55.84375 C 37.289062 -55.019531 37.796875 -54.132812 38.109375 -53.1875 C 38.429688 -52.238281 38.429688 -51.320312 38.109375 -50.4375 C 37.734375 -49.050781 37.359375 -48.039062 36.984375 -47.40625 C 36.785156 -47.09375 36.460938 -46.835938 36.015625 -46.640625 C 35.578125 -46.453125 35.109375 -46.265625 34.609375 -46.078125 C 34.035156 -45.953125 32.863281 -45.859375 31.09375 -45.796875 C 29.320312 -45.734375 28.1875 -45.640625 27.6875 -45.515625 C 26.863281 -45.066406 26.328125 -44.492188 26.078125 -43.796875 C 25.691406 -42.984375 25.628906 -41.40625 25.890625 -39.0625 C 25.953125 -38.113281 25.96875 -37.414062 25.9375 -36.96875 C 25.90625 -36.53125 25.921875 -36.28125 25.984375 -36.21875 C 26.234375 -36.15625 26.703125 -36.078125 27.390625 -35.984375 C 28.085938 -35.890625 29.070312 -35.8125 30.34375 -35.75 C 31.039062 -35.75 31.796875 -35.695312 32.609375 -35.59375 C 33.429688 -35.5 34.191406 -35.3125 34.890625 -35.03125 C 35.585938 -34.75 36.203125 -34.351562 36.734375 -33.84375 C 37.273438 -33.34375 37.640625 -32.679688 37.828125 -31.859375 C 37.953125 -30.785156 38.046875 -29.804688 38.109375 -28.921875 C 38.171875 -28.035156 38.046875 -27.304688 37.734375 -26.734375 C 36.847656 -25.085938 34.191406 -24.171875 29.765625 -23.984375 C 28.566406 -23.921875 27.8125 -23.828125 27.5 -23.703125 C 26.289062 -23.515625 25.59375 -23.132812 25.40625 -22.5625 C 25.34375 -22.5 25.328125 -22.375 25.359375 -22.1875 C 25.390625 -22 25.375 -21.773438 25.3125 -21.515625 C 24.9375 -20.191406 24.8125 -17.410156 24.9375 -13.171875 C 24.9375 -11.410156 24.96875 -10.019531 25.03125 -9 C 25.09375 -7.988281 25.0625 -7.234375 24.9375 -6.734375 C 24.875 -6.160156 24.796875 -5.632812 24.703125 -5.15625 C 24.609375 -4.6875 24.5625 -4.265625 24.5625 -3.890625 C 24.625 -2.492188 24.429688 -1.484375 23.984375 -0.859375 C 23.359375 0.0859375 22.160156 0.5625 20.390625 0.5625 C 20.128906 0.5625 19.710938 0.546875 19.140625 0.515625 C 18.578125 0.484375 17.992188 0.421875 17.390625 0.328125 C 16.796875 0.234375 16.242188 0.125 15.734375 0 C 15.234375 -0.125 14.890625 -0.28125 14.703125 -0.46875 C 14.503906 -0.53125 14.375 -0.753906 14.3125 -1.140625 C 14 -1.898438 13.6875 -4.238281 13.375 -8.15625 C 13.175781 -12.382812 13.046875 -15.734375 12.984375 -18.203125 C 12.921875 -20.671875 12.859375 -22.316406 12.796875 -23.140625 L 12.796875 -23.890625 C 12.484375 -24.015625 10.90625 -24.109375 8.0625 -24.171875 C 7.300781 -24.234375 6.617188 -24.3125 6.015625 -24.40625 C 5.421875 -24.507812 4.929688 -24.625 4.546875 -24.75 C 3.472656 -25.125 2.78125 -25.597656 2.46875 -26.171875 C 2.34375 -26.484375 2.28125 -26.84375 2.28125 -27.25 C 2.28125 -27.664062 2.25 -28.03125 2.1875 -28.34375 C 2.1875 -28.46875 2.148438 -28.609375 2.078125 -28.765625 C 2.015625 -28.929688 1.953125 -29.078125 1.890625 -29.203125 C 1.578125 -29.960938 1.640625 -30.910156 2.078125 -32.046875 C 2.210938 -32.484375 2.3125 -32.738281 2.375 -32.8125 C 2.5625 -33.125 2.921875 -33.390625 3.453125 -33.609375 C 3.992188 -33.828125 4.578125 -33.984375 5.203125 -34.078125 C 5.835938 -34.179688 6.472656 -34.25 7.109375 -34.28125 C 7.742188 -34.3125 8.25 -34.328125 8.625 -34.328125 C 9.507812 -34.390625 10.234375 -34.421875 10.796875 -34.421875 C 11.367188 -34.421875 11.753906 -34.578125 11.953125 -34.890625 C 12.453125 -35.265625 12.796875 -36.972656 12.984375 -40.015625 C 13.109375 -43.046875 13.550781 -45.710938 14.3125 -48.015625 C 15.070312 -50.328125 16.179688 -52.273438 17.640625 -53.859375 C 20.296875 -56.890625 23.582031 -58.40625 27.5 -58.40625 Z M 29.578125 -56.03125 L 29.109375 -56.03125 L 29.109375 -55.46875 C 29.109375 -55.019531 29.21875 -54.671875 29.4375 -54.421875 C 29.65625 -54.171875 29.925781 -53.984375 30.25 -53.859375 C 30.3125 -53.796875 30.515625 -53.726562 30.859375 -53.65625 C 31.210938 -53.59375 31.59375 -53.5625 32 -53.5625 C 32.40625 -53.5625 32.796875 -53.5625 33.171875 -53.5625 C 33.554688 -53.5625 33.84375 -53.5625 34.03125 -53.5625 C 34.539062 -53.625 34.8125 -53.8125 34.84375 -54.125 C 34.875 -54.445312 34.734375 -54.800781 34.421875 -55.1875 C 33.972656 -55.625 33.195312 -55.875 32.09375 -55.9375 C 30.988281 -56 30.148438 -56.03125 29.578125 -56.03125 Z M 29.578125 -56.03125 "/></g></g></g><g fill="#5e17eb" fill-opacity="1"><g transform="translate(49.072751, 198.032161)"><g><path d="M 20.484375 -34.796875 C 21.742188 -34.796875 22.894531 -34.585938 23.9375 -34.171875 C 24.976562 -33.765625 26.035156 -33.210938 27.109375 -32.515625 L 28.34375 -31.953125 L 29.203125 -32.703125 C 30.398438 -33.722656 32.171875 -34.234375 34.515625 -34.234375 C 35.203125 -34.234375 35.957031 -34.179688 36.78125 -34.078125 C 37.601562 -33.984375 38.410156 -33.828125 39.203125 -33.609375 C 39.992188 -33.390625 40.703125 -33.054688 41.328125 -32.609375 C 41.960938 -32.171875 42.410156 -31.570312 42.671875 -30.8125 C 42.734375 -30.625 42.765625 -27.367188 42.765625 -21.046875 C 42.765625 -12.765625 42.890625 -8.375 43.140625 -7.875 C 43.265625 -7.75 43.390625 -6.640625 43.515625 -4.546875 L 43.609375 -1.703125 L 43.140625 -1.421875 C 42.378906 -0.722656 41.175781 -0.0625 39.53125 0.5625 C 37.757812 1.195312 36.023438 1.390625 34.328125 1.140625 C 33.503906 0.890625 32.929688 0.570312 32.609375 0.1875 C 32.296875 -0.1875 31.789062 -0.910156 31.09375 -1.984375 C 30.84375 -2.367188 30.554688 -2.796875 30.234375 -3.265625 C 29.921875 -3.742188 29.515625 -4.300781 29.015625 -4.9375 C 28.828125 -5.1875 28.507812 -5.3125 28.0625 -5.3125 C 27.363281 -5.1875 26.445312 -4.804688 25.3125 -4.171875 C 24.363281 -3.535156 23.539062 -3.023438 22.84375 -2.640625 C 22.15625 -2.265625 21.585938 -1.953125 21.140625 -1.703125 C 19.753906 -1.140625 18.332031 -0.664062 16.875 -0.28125 C 16.5625 -0.21875 16.210938 -0.171875 15.828125 -0.140625 C 15.453125 -0.109375 15.078125 -0.09375 14.703125 -0.09375 C 12.046875 -0.09375 9.925781 -0.914062 8.34375 -2.5625 C 6.757812 -4.207031 5.492188 -6.195312 4.546875 -8.53125 C 3.660156 -10.9375 3.109375 -13.398438 2.890625 -15.921875 C 2.671875 -18.453125 2.878906 -21.078125 3.515625 -23.796875 C 3.890625 -25.566406 4.675781 -27.128906 5.875 -28.484375 C 7.082031 -29.847656 8.503906 -31.003906 10.140625 -31.953125 C 11.785156 -32.898438 13.523438 -33.609375 15.359375 -34.078125 C 17.191406 -34.554688 18.898438 -34.796875 20.484375 -34.796875 Z M 37.734375 -31.953125 C 37.484375 -32.015625 37.242188 -32.0625 37.015625 -32.09375 C 36.796875 -32.125 36.53125 -32.171875 36.21875 -32.234375 L 35.171875 -32.234375 L 35.171875 -31.671875 C 35.171875 -30.972656 35.390625 -30.382812 35.828125 -29.90625 C 36.273438 -29.4375 36.753906 -29.203125 37.265625 -29.203125 C 37.640625 -29.203125 38.078125 -29.390625 38.578125 -29.765625 C 39.085938 -30.148438 39.34375 -30.46875 39.34375 -30.71875 C 39.34375 -31.226562 38.804688 -31.640625 37.734375 -31.953125 Z M 27.875 -23.796875 C 27.75 -23.921875 26.863281 -23.703125 25.21875 -23.140625 C 20.351562 -21.679688 17.476562 -20.507812 16.59375 -19.625 C 15.519531 -18.738281 14.984375 -17.253906 14.984375 -15.171875 C 15.109375 -12.140625 15.863281 -10.335938 17.25 -9.765625 C 17.570312 -9.640625 17.921875 -9.578125 18.296875 -9.578125 C 18.679688 -9.578125 19.03125 -9.578125 19.34375 -9.578125 C 20.726562 -9.578125 22.164062 -9.953125 23.65625 -10.703125 C 25.144531 -11.460938 26.425781 -12.285156 27.5 -13.171875 L 28.4375 -13.9375 L 28.4375 -15.265625 C 28.4375 -16.398438 28.40625 -17.535156 28.34375 -18.671875 C 28.28125 -19.816406 28.1875 -21.019531 28.0625 -22.28125 C 28 -22.53125 27.96875 -22.75 27.96875 -22.9375 C 27.96875 -23.132812 27.9375 -23.296875 27.875 -23.421875 C 27.875 -23.546875 27.875 -23.671875 27.875 -23.796875 Z M 27.875 -23.796875 "/></g></g></g><g fill="#5e17eb" fill-opacity="1"><g transform="translate(91.36006, 198.032161)"><g><path d="M 21.90625 0.1875 C 15.394531 0.1875 10.585938 -1.203125 7.484375 -3.984375 C 4.390625 -6.765625 2.84375 -11.316406 2.84375 -17.640625 C 2.84375 -18.773438 2.859375 -19.800781 2.890625 -20.71875 C 2.921875 -21.632812 3.03125 -22.410156 3.21875 -23.046875 C 4.675781 -27.523438 7.363281 -30.710938 11.28125 -32.609375 C 12.539062 -33.117188 13.800781 -33.546875 15.0625 -33.890625 C 16.332031 -34.242188 17.726562 -34.515625 19.25 -34.703125 C 19.375 -34.765625 19.59375 -34.796875 19.90625 -34.796875 C 19.96875 -34.796875 20.0625 -34.796875 20.1875 -34.796875 C 20.570312 -34.796875 21.238281 -34.796875 22.1875 -34.796875 C 23.132812 -34.796875 23.859375 -34.765625 24.359375 -34.703125 C 25.753906 -34.453125 27.097656 -34.117188 28.390625 -33.703125 C 29.691406 -33.296875 30.878906 -32.742188 31.953125 -32.046875 C 33.085938 -31.347656 33.859375 -30.742188 34.265625 -30.234375 C 34.679688 -29.734375 34.859375 -29.101562 34.796875 -28.34375 C 34.796875 -28.09375 34.78125 -27.875 34.75 -27.6875 C 34.71875 -27.5 34.609375 -27.242188 34.421875 -26.921875 C 34.296875 -26.546875 34.085938 -26.195312 33.796875 -25.875 C 33.515625 -25.5625 33.21875 -25.3125 32.90625 -25.125 C 31.957031 -24.363281 31.039062 -23.984375 30.15625 -23.984375 C 29.394531 -23.984375 28.554688 -24.109375 27.640625 -24.359375 C 26.722656 -24.617188 25.914062 -24.875 25.21875 -25.125 C 24.394531 -25.375 23.703125 -25.53125 23.140625 -25.59375 C 21.867188 -25.65625 20.757812 -25.5 19.8125 -25.125 C 19.5 -24.9375 19.070312 -24.601562 18.53125 -24.125 C 18 -23.65625 17.671875 -23.328125 17.546875 -23.140625 C 17.222656 -22.628906 16.921875 -22.039062 16.640625 -21.375 C 16.359375 -20.71875 16.148438 -19.945312 16.015625 -19.0625 C 15.953125 -18.488281 15.921875 -17.664062 15.921875 -16.59375 C 15.921875 -15.519531 15.953125 -14.726562 16.015625 -14.21875 C 16.148438 -13.71875 16.296875 -13.226562 16.453125 -12.75 C 16.609375 -12.28125 16.75 -11.851562 16.875 -11.46875 C 17.0625 -11.03125 17.359375 -10.554688 17.765625 -10.046875 C 18.179688 -9.546875 18.582031 -9.195312 18.96875 -9 C 19.71875 -8.6875 20.503906 -8.53125 21.328125 -8.53125 C 22.398438 -8.53125 23.613281 -8.734375 24.96875 -9.140625 C 26.332031 -9.554688 27.488281 -9.984375 28.4375 -10.421875 C 29.519531 -10.929688 30.21875 -11.21875 30.53125 -11.28125 C 30.84375 -11.34375 31.316406 -11.375 31.953125 -11.375 C 32.328125 -11.375 32.65625 -11.34375 32.9375 -11.28125 C 33.226562 -11.21875 33.46875 -11.15625 33.65625 -11.09375 C 34.414062 -10.84375 35.0625 -10.554688 35.59375 -10.234375 C 36.132812 -9.921875 36.5 -9.507812 36.6875 -9 C 36.882812 -8.8125 36.984375 -8.46875 36.984375 -7.96875 C 36.984375 -6.445312 36.410156 -5.179688 35.265625 -4.171875 C 34.128906 -3.160156 32.753906 -2.335938 31.140625 -1.703125 C 29.535156 -1.078125 27.878906 -0.617188 26.171875 -0.328125 C 24.460938 -0.046875 23.039062 0.125 21.90625 0.1875 Z M 29.109375 -32.515625 C 27.710938 -32.898438 27.015625 -32.648438 27.015625 -31.765625 C 27.015625 -31.640625 27.265625 -31.398438 27.765625 -31.046875 C 28.273438 -30.703125 28.722656 -30.46875 29.109375 -30.34375 C 29.609375 -30.082031 30.078125 -29.921875 30.515625 -29.859375 C 30.960938 -29.796875 31.285156 -29.863281 31.484375 -30.0625 C 31.734375 -30.3125 31.734375 -30.5625 31.484375 -30.8125 C 31.222656 -31.507812 30.429688 -32.078125 29.109375 -32.515625 Z M 29.109375 -32.515625 "/></g></g></g><g fill="#5e17eb" fill-opacity="1"><g transform="translate(125.398427, 198.032161)"><g><path d="M 21.234375 -34.703125 C 24.015625 -34.703125 26.640625 -34.445312 29.109375 -33.9375 C 31.578125 -33.4375 33.882812 -32.238281 36.03125 -30.34375 C 37.101562 -29.332031 37.9375 -28.285156 38.53125 -27.203125 C 39.132812 -26.128906 39.5 -24.992188 39.625 -23.796875 C 39.757812 -22.910156 39.773438 -22.070312 39.671875 -21.28125 C 39.578125 -20.488281 39.375 -19.75 39.0625 -19.0625 C 38.6875 -18.113281 38.164062 -17.351562 37.5 -16.78125 C 36.832031 -16.207031 36.085938 -15.765625 35.265625 -15.453125 C 34.441406 -15.140625 33.554688 -14.914062 32.609375 -14.78125 C 31.660156 -14.65625 30.742188 -14.5625 29.859375 -14.5 C 28.660156 -14.4375 27.175781 -14.375 25.40625 -14.3125 C 23.632812 -14.25 21.550781 -14.21875 19.15625 -14.21875 C 17.445312 -14.21875 16.4375 -14.15625 16.125 -14.03125 L 15.640625 -13.9375 L 15.828125 -13.65625 C 15.953125 -12.832031 16.207031 -12.132812 16.59375 -11.5625 C 17.664062 -9.726562 20.066406 -8.8125 23.796875 -8.8125 C 24.304688 -8.8125 24.828125 -8.84375 25.359375 -8.90625 C 25.898438 -8.96875 26.390625 -9.066406 26.828125 -9.203125 C 27.273438 -9.328125 27.890625 -9.484375 28.671875 -9.671875 C 29.460938 -9.859375 30.492188 -10.109375 31.765625 -10.421875 C 32.328125 -10.679688 32.859375 -10.828125 33.359375 -10.859375 C 33.867188 -10.890625 34.316406 -10.90625 34.703125 -10.90625 C 35.140625 -10.84375 35.628906 -10.726562 36.171875 -10.5625 C 36.710938 -10.40625 37.265625 -10.203125 37.828125 -9.953125 C 38.015625 -9.828125 38.125 -9.71875 38.15625 -9.625 C 38.1875 -9.53125 38.269531 -9.453125 38.40625 -9.390625 C 38.40625 -9.328125 38.40625 -9.195312 38.40625 -9 C 38.40625 -8.8125 38.4375 -8.625 38.5 -8.4375 C 38.5625 -8.125 38.625 -7.867188 38.6875 -7.671875 C 38.75 -7.484375 38.78125 -7.328125 38.78125 -7.203125 C 38.78125 -6.378906 38.367188 -5.570312 37.546875 -4.78125 C 36.722656 -4 35.742188 -3.304688 34.609375 -2.703125 C 33.472656 -2.097656 32.316406 -1.585938 31.140625 -1.171875 C 29.972656 -0.765625 29.007812 -0.46875 28.25 -0.28125 C 25.40625 0.28125 22.972656 0.5625 20.953125 0.5625 C 20.253906 0.5625 19.414062 0.5 18.4375 0.375 C 17.457031 0.25 16.445312 0.09375 15.40625 -0.09375 C 14.363281 -0.28125 13.367188 -0.5 12.421875 -0.75 C 11.472656 -1.007812 10.679688 -1.296875 10.046875 -1.609375 C 9.796875 -1.734375 9.492188 -1.9375 9.140625 -2.21875 C 8.796875 -2.507812 8.375 -2.90625 7.875 -3.40625 C 6.601562 -4.351562 5.875 -5.082031 5.6875 -5.59375 C 5.1875 -6.289062 4.742188 -7.097656 4.359375 -8.015625 C 3.984375 -8.929688 3.601562 -9.988281 3.21875 -11.1875 L 2.84375 -12.515625 L 2.84375 -16.015625 C 2.84375 -18.109375 3.015625 -20.320312 3.359375 -22.65625 C 3.710938 -25 4.582031 -26.992188 5.96875 -28.640625 C 7.988281 -31.222656 10.390625 -32.957031 13.171875 -33.84375 C 14.503906 -34.164062 15.847656 -34.390625 17.203125 -34.515625 C 18.566406 -34.640625 19.910156 -34.703125 21.234375 -34.703125 Z M 31.28125 -32.703125 C 30.90625 -32.898438 30.429688 -32.867188 29.859375 -32.609375 L 29.578125 -32.046875 L 29.671875 -31.765625 C 29.796875 -31.441406 29.921875 -31.171875 30.046875 -30.953125 C 30.179688 -30.734375 30.4375 -30.5625 30.8125 -30.4375 C 31.125 -30.3125 31.4375 -30.21875 31.75 -30.15625 C 32.070312 -30.09375 32.457031 -30.125 32.90625 -30.25 L 33.375 -30.34375 L 33.375 -30.625 C 33.25 -31.382812 32.550781 -32.078125 31.28125 -32.703125 Z M 24.171875 -26.453125 C 23.609375 -26.640625 23.132812 -26.640625 22.75 -26.453125 C 21.550781 -26.453125 20.289062 -26.265625 18.96875 -25.890625 C 18.207031 -25.566406 17.664062 -24.992188 17.34375 -24.171875 C 16.96875 -23.796875 16.84375 -23.320312 16.96875 -22.75 C 16.96875 -22.5 16.984375 -22.3125 17.015625 -22.1875 C 17.046875 -22.0625 17.0625 -21.96875 17.0625 -21.90625 C 17.0625 -21.84375 18.644531 -21.8125 21.8125 -21.8125 C 23.070312 -21.8125 24.097656 -21.8125 24.890625 -21.8125 C 25.679688 -21.8125 26.234375 -21.84375 26.546875 -21.90625 C 27.117188 -22.03125 27.53125 -22.21875 27.78125 -22.46875 C 28.09375 -22.71875 28.25 -23.035156 28.25 -23.421875 C 28.25 -23.734375 28.1875 -24.03125 28.0625 -24.3125 C 27.9375 -24.601562 27.8125 -24.875 27.6875 -25.125 C 26.988281 -25.820312 25.816406 -26.265625 24.171875 -26.453125 Z M 24.171875 -26.453125 "/></g></g></g><g fill="#5e17eb" fill-opacity="1"><g transform="translate(162.565708, 198.032161)"><g><path d="M 7.390625 -35.453125 C 8.273438 -35.648438 9.003906 -35.75 9.578125 -35.75 C 10.585938 -35.6875 11.628906 -35.429688 12.703125 -34.984375 C 13.898438 -34.609375 14.878906 -34.070312 15.640625 -33.375 C 16.023438 -33.125 16.25 -33 16.3125 -33 C 16.8125 -33 17.664062 -33.28125 18.875 -33.84375 C 20.320312 -34.539062 21.816406 -35 23.359375 -35.21875 C 24.910156 -35.4375 26.507812 -35.546875 28.15625 -35.546875 C 29.863281 -35.484375 30.972656 -35.328125 31.484375 -35.078125 C 32.234375 -34.953125 33.019531 -34.710938 33.84375 -34.359375 C 34.664062 -34.015625 35.488281 -33.5 36.3125 -32.8125 L 37.265625 -32.046875 L 37.828125 -32.515625 C 38.898438 -33.023438 39.988281 -33.484375 41.09375 -33.890625 C 42.207031 -34.304688 43.363281 -34.640625 44.5625 -34.890625 C 44.9375 -34.953125 45.410156 -35 45.984375 -35.03125 C 46.554688 -35.0625 47.25 -35.078125 48.0625 -35.078125 C 49.894531 -35.078125 51.710938 -34.789062 53.515625 -34.21875 C 55.316406 -33.65625 56.851562 -32.675781 58.125 -31.28125 C 58.75 -30.65625 59.25 -29.867188 59.625 -28.921875 C 60.007812 -27.972656 60.3125 -26.972656 60.53125 -25.921875 C 60.757812 -24.878906 60.921875 -23.820312 61.015625 -22.75 C 61.109375 -21.675781 61.15625 -20.695312 61.15625 -19.8125 C 61.34375 -11.53125 61.023438 -5.875 60.203125 -2.84375 C 59.253906 -0.0625 57.453125 1.328125 54.796875 1.328125 C 54.296875 1.328125 53.710938 1.28125 53.046875 1.1875 C 52.378906 1.09375 51.859375 0.914062 51.484375 0.65625 C 50.847656 0.28125 50.039062 -0.21875 49.0625 -0.84375 C 48.082031 -1.476562 47.5625 -2.238281 47.5 -3.125 C 47.4375 -3.820312 47.40625 -4.785156 47.40625 -6.015625 C 47.40625 -7.253906 47.46875 -8.722656 47.59375 -10.421875 C 47.78125 -12.453125 47.875 -14.507812 47.875 -16.59375 C 47.875 -19.375 47.75 -21.300781 47.5 -22.375 C 47.4375 -23.382812 47.1875 -24.113281 46.75 -24.5625 C 46.613281 -24.625 46.5 -24.6875 46.40625 -24.75 C 46.3125 -24.8125 46.171875 -24.875 45.984375 -24.9375 C 45.609375 -25.125 45.164062 -25.21875 44.65625 -25.21875 C 43.894531 -25.21875 43.039062 -25.007812 42.09375 -24.59375 C 41.144531 -24.1875 40.226562 -23.570312 39.34375 -22.75 L 38.875 -22.28125 L 38.875 -14.796875 C 38.875 -12.578125 38.875 -10.753906 38.875 -9.328125 C 38.875 -7.910156 38.84375 -6.882812 38.78125 -6.25 C 38.78125 -5.5625 38.765625 -4.898438 38.734375 -4.265625 C 38.703125 -3.628906 38.65625 -2.96875 38.59375 -2.28125 C 38.269531 -1.582031 37.898438 -1.023438 37.484375 -0.609375 C 37.078125 -0.203125 36.59375 0.15625 36.03125 0.46875 C 35.207031 0.789062 34.226562 0.953125 33.09375 0.953125 C 32.207031 0.953125 31.445312 0.890625 30.8125 0.765625 C 30.3125 0.503906 29.804688 0.1875 29.296875 -0.1875 C 28.785156 -0.570312 27.992188 -1.046875 26.921875 -1.609375 C 26.484375 -2.679688 26.328125 -4.296875 26.453125 -6.453125 C 26.578125 -7.523438 26.65625 -8.785156 26.6875 -10.234375 C 26.71875 -11.691406 26.734375 -13.367188 26.734375 -15.265625 L 26.734375 -20.296875 C 26.609375 -21.554688 26.484375 -22.515625 26.359375 -23.171875 C 26.234375 -23.835938 26.007812 -24.300781 25.6875 -24.5625 C 25.125 -25 24.113281 -25.21875 22.65625 -25.21875 C 21.707031 -25.21875 20.726562 -25.023438 19.71875 -24.640625 C 18.707031 -24.265625 18.140625 -23.507812 18.015625 -22.375 C 17.890625 -22.0625 17.859375 -21.726562 17.921875 -21.375 C 17.984375 -21.03125 17.953125 -20.703125 17.828125 -20.390625 C 17.703125 -19.503906 17.625 -18.378906 17.59375 -17.015625 C 17.5625 -15.660156 17.578125 -14.035156 17.640625 -12.140625 C 17.640625 -9.734375 17.625 -7.816406 17.59375 -6.390625 C 17.5625 -4.972656 17.515625 -4.015625 17.453125 -3.515625 C 17.316406 -2.429688 16.632812 -1.570312 15.40625 -0.9375 C 14.175781 -0.3125 13.117188 0.15625 12.234375 0.46875 C 11.722656 0.59375 11.023438 0.691406 10.140625 0.765625 C 8.429688 0.765625 7.039062 0.414062 5.96875 -0.28125 C 5.65625 -0.53125 5.351562 -0.8125 5.0625 -1.125 C 4.78125 -1.445312 4.578125 -1.800781 4.453125 -2.1875 C 4.328125 -2.5625 4.21875 -2.921875 4.125 -3.265625 C 4.03125 -3.617188 3.984375 -4.046875 3.984375 -4.546875 L 3.984375 -15.453125 C 3.921875 -23.160156 3.921875 -27.679688 3.984375 -29.015625 C 4.109375 -30.273438 4.21875 -31.316406 4.3125 -32.140625 C 4.40625 -32.960938 4.515625 -33.53125 4.640625 -33.84375 C 4.835938 -34.226562 5.171875 -34.53125 5.640625 -34.75 C 6.117188 -34.96875 6.703125 -35.203125 7.390625 -35.453125 Z M 53.1875 -32.703125 C 52.75 -32.898438 52.367188 -33 52.046875 -33 C 51.421875 -33 51.046875 -32.648438 50.921875 -31.953125 C 50.785156 -31.578125 50.765625 -31.335938 50.859375 -31.234375 C 50.960938 -31.140625 51.171875 -30.96875 51.484375 -30.71875 C 52.367188 -30.28125 53.347656 -29.929688 54.421875 -29.671875 C 55.554688 -29.296875 56.1875 -29.425781 56.3125 -30.0625 C 56.445312 -30.25 56.070312 -30.722656 55.1875 -31.484375 C 54.863281 -31.734375 54.523438 -31.96875 54.171875 -32.1875 C 53.828125 -32.40625 53.5 -32.578125 53.1875 -32.703125 Z M 53.1875 -32.703125 "/></g></g></g><g fill="#5e17eb" fill-opacity="1"><g transform="translate(222.393875, 198.032161)"><g><path d="M 21.71875 -35.078125 L 28.4375 -35.078125 L 29.578125 -34.703125 C 32.109375 -34.003906 33.910156 -33.304688 34.984375 -32.609375 C 35.742188 -32.171875 36.40625 -31.695312 36.96875 -31.1875 C 37.539062 -30.6875 38.082031 -30.148438 38.59375 -29.578125 C 40.675781 -26.796875 41.6875 -23.003906 41.625 -18.203125 C 41.5625 -16.242188 41.273438 -14.347656 40.765625 -12.515625 C 40.265625 -10.679688 39.539062 -8.972656 38.59375 -7.390625 C 37.644531 -5.816406 36.441406 -4.441406 34.984375 -3.265625 C 33.535156 -2.097656 31.828125 -1.195312 29.859375 -0.5625 C 29.546875 -0.4375 29.132812 -0.328125 28.625 -0.234375 C 28.125 -0.140625 27.492188 -0.03125 26.734375 0.09375 L 24.46875 0.65625 L 21.625 0.65625 C 15.925781 0.65625 11.398438 -0.648438 8.046875 -3.265625 C 4.703125 -5.890625 2.96875 -10.207031 2.84375 -16.21875 C 2.65625 -23.039062 4.550781 -28.316406 8.53125 -32.046875 C 9.289062 -32.742188 9.96875 -33.296875 10.5625 -33.703125 C 11.164062 -34.117188 11.785156 -34.359375 12.421875 -34.421875 C 12.546875 -34.546875 12.78125 -34.578125 13.125 -34.515625 C 13.476562 -34.453125 13.90625 -34.390625 14.40625 -34.328125 L 15.921875 -34.234375 L 17.34375 -34.609375 C 18.101562 -34.734375 18.847656 -34.828125 19.578125 -34.890625 C 20.304688 -34.953125 21.019531 -35.015625 21.71875 -35.078125 Z M 31.859375 -32.234375 C 30.660156 -32.992188 29.992188 -32.804688 29.859375 -31.671875 C 29.859375 -31.484375 29.921875 -31.320312 30.046875 -31.1875 C 30.179688 -31.0625 30.40625 -30.84375 30.71875 -30.53125 C 31.351562 -30.019531 31.859375 -29.6875 32.234375 -29.53125 C 32.617188 -29.375 33.21875 -29.296875 34.03125 -29.296875 C 34.351562 -29.421875 34.429688 -29.625 34.265625 -29.90625 C 34.109375 -30.195312 33.75 -30.65625 33.1875 -31.28125 C 32.863281 -31.539062 32.609375 -31.734375 32.421875 -31.859375 C 32.234375 -31.984375 32.046875 -32.109375 31.859375 -32.234375 Z M 24.265625 -25.59375 C 23.316406 -25.789062 22.367188 -25.835938 21.421875 -25.734375 C 20.472656 -25.640625 19.554688 -25.4375 18.671875 -25.125 C 18.546875 -25.0625 18.375 -24.882812 18.15625 -24.59375 C 17.9375 -24.3125 17.679688 -23.960938 17.390625 -23.546875 C 17.109375 -23.140625 16.84375 -22.71875 16.59375 -22.28125 C 16.34375 -21.84375 16.148438 -21.429688 16.015625 -21.046875 C 15.390625 -19.660156 15.140625 -18.113281 15.265625 -16.40625 C 15.265625 -14.820312 15.59375 -13.332031 16.25 -11.9375 C 16.914062 -10.550781 18.132812 -9.703125 19.90625 -9.390625 C 20.601562 -9.203125 21.269531 -9.109375 21.90625 -9.109375 C 23.414062 -9.109375 24.644531 -9.359375 25.59375 -9.859375 C 26.539062 -10.367188 27.285156 -11.046875 27.828125 -11.890625 C 28.367188 -12.742188 28.734375 -13.722656 28.921875 -14.828125 C 29.109375 -15.941406 29.203125 -17.128906 29.203125 -18.390625 C 29.203125 -20.347656 28.945312 -21.738281 28.4375 -22.5625 C 28 -23.382812 27.429688 -24.0625 26.734375 -24.59375 C 26.035156 -25.132812 25.210938 -25.46875 24.265625 -25.59375 Z M 24.265625 -25.59375 "/></g></g></g><g fill="#5e17eb" fill-opacity="1"><g transform="translate(261.647085, 198.032161)"><g><path d="M 7.390625 -35.453125 C 8.273438 -35.648438 9.003906 -35.75 9.578125 -35.75 C 10.585938 -35.6875 11.628906 -35.429688 12.703125 -34.984375 C 13.898438 -34.609375 14.878906 -34.070312 15.640625 -33.375 C 16.023438 -33.125 16.25 -33 16.3125 -33 C 16.8125 -33 17.664062 -33.28125 18.875 -33.84375 C 20.320312 -34.539062 21.816406 -35 23.359375 -35.21875 C 24.910156 -35.4375 26.507812 -35.546875 28.15625 -35.546875 C 29.863281 -35.484375 30.972656 -35.328125 31.484375 -35.078125 C 32.234375 -34.953125 33.019531 -34.710938 33.84375 -34.359375 C 34.664062 -34.015625 35.488281 -33.5 36.3125 -32.8125 L 37.265625 -32.046875 L 37.828125 -32.515625 C 38.898438 -33.023438 39.988281 -33.484375 41.09375 -33.890625 C 42.207031 -34.304688 43.363281 -34.640625 44.5625 -34.890625 C 44.9375 -34.953125 45.410156 -35 45.984375 -35.03125 C 46.554688 -35.0625 47.25 -35.078125 48.0625 -35.078125 C 49.894531 -35.078125 51.710938 -34.789062 53.515625 -34.21875 C 55.316406 -33.65625 56.851562 -32.675781 58.125 -31.28125 C 58.75 -30.65625 59.25 -29.867188 59.625 -28.921875 C 60.007812 -27.972656 60.3125 -26.972656 60.53125 -25.921875 C 60.757812 -24.878906 60.921875 -23.820312 61.015625 -22.75 C 61.109375 -21.675781 61.15625 -20.695312 61.15625 -19.8125 C 61.34375 -11.53125 61.023438 -5.875 60.203125 -2.84375 C 59.253906 -0.0625 57.453125 1.328125 54.796875 1.328125 C 54.296875 1.328125 53.710938 1.28125 53.046875 1.1875 C 52.378906 1.09375 51.859375 0.914062 51.484375 0.65625 C 50.847656 0.28125 50.039062 -0.21875 49.0625 -0.84375 C 48.082031 -1.476562 47.5625 -2.238281 47.5 -3.125 C 47.4375 -3.820312 47.40625 -4.785156 47.40625 -6.015625 C 47.40625 -7.253906 47.46875 -8.722656 47.59375 -10.421875 C 47.78125 -12.453125 47.875 -14.507812 47.875 -16.59375 C 47.875 -19.375 47.75 -21.300781 47.5 -22.375 C 47.4375 -23.382812 47.1875 -24.113281 46.75 -24.5625 C 46.613281 -24.625 46.5 -24.6875 46.40625 -24.75 C 46.3125 -24.8125 46.171875 -24.875 45.984375 -24.9375 C 45.609375 -25.125 45.164062 -25.21875 44.65625 -25.21875 C 43.894531 -25.21875 43.039062 -25.007812 42.09375 -24.59375 C 41.144531 -24.1875 40.226562 -23.570312 39.34375 -22.75 L 38.875 -22.28125 L 38.875 -14.796875 C 38.875 -12.578125 38.875 -10.753906 38.875 -9.328125 C 38.875 -7.910156 38.84375 -6.882812 38.78125 -6.25 C 38.78125 -5.5625 38.765625 -4.898438 38.734375 -4.265625 C 38.703125 -3.628906 38.65625 -2.96875 38.59375 -2.28125 C 38.269531 -1.582031 37.898438 -1.023438 37.484375 -0.609375 C 37.078125 -0.203125 36.59375 0.15625 36.03125 0.46875 C 35.207031 0.789062 34.226562 0.953125 33.09375 0.953125 C 32.207031 0.953125 31.445312 0.890625 30.8125 0.765625 C 30.3125 0.503906 29.804688 0.1875 29.296875 -0.1875 C 28.785156 -0.570312 27.992188 -1.046875 26.921875 -1.609375 C 26.484375 -2.679688 26.328125 -4.296875 26.453125 -6.453125 C 26.578125 -7.523438 26.65625 -8.785156 26.6875 -10.234375 C 26.71875 -11.691406 26.734375 -13.367188 26.734375 -15.265625 L 26.734375 -20.296875 C 26.609375 -21.554688 26.484375 -22.515625 26.359375 -23.171875 C 26.234375 -23.835938 26.007812 -24.300781 25.6875 -24.5625 C 25.125 -25 24.113281 -25.21875 22.65625 -25.21875 C 21.707031 -25.21875 20.726562 -25.023438 19.71875 -24.640625 C 18.707031 -24.265625 18.140625 -23.507812 18.015625 -22.375 C 17.890625 -22.0625 17.859375 -21.726562 17.921875 -21.375 C 17.984375 -21.03125 17.953125 -20.703125 17.828125 -20.390625 C 17.703125 -19.503906 17.625 -18.378906 17.59375 -17.015625 C 17.5625 -15.660156 17.578125 -14.035156 17.640625 -12.140625 C 17.640625 -9.734375 17.625 -7.816406 17.59375 -6.390625 C 17.5625 -4.972656 17.515625 -4.015625 17.453125 -3.515625 C 17.316406 -2.429688 16.632812 -1.570312 15.40625 -0.9375 C 14.175781 -0.3125 13.117188 0.15625 12.234375 0.46875 C 11.722656 0.59375 11.023438 0.691406 10.140625 0.765625 C 8.429688 0.765625 7.039062 0.414062 5.96875 -0.28125 C 5.65625 -0.53125 5.351562 -0.8125 5.0625 -1.125 C 4.78125 -1.445312 4.578125 -1.800781 4.453125 -2.1875 C 4.328125 -2.5625 4.21875 -2.921875 4.125 -3.265625 C 4.03125 -3.617188 3.984375 -4.046875 3.984375 -4.546875 L 3.984375 -15.453125 C 3.921875 -23.160156 3.921875 -27.679688 3.984375 -29.015625 C 4.109375 -30.273438 4.21875 -31.316406 4.3125 -32.140625 C 4.40625 -32.960938 4.515625 -33.53125 4.640625 -33.84375 C 4.835938 -34.226562 5.171875 -34.53125 5.640625 -34.75 C 6.117188 -34.96875 6.703125 -35.203125 7.390625 -35.453125 Z M 53.1875 -32.703125 C 52.75 -32.898438 52.367188 -33 52.046875 -33 C 51.421875 -33 51.046875 -32.648438 50.921875 -31.953125 C 50.785156 -31.578125 50.765625 -31.335938 50.859375 -31.234375 C 50.960938 -31.140625 51.171875 -30.96875 51.484375 -30.71875 C 52.367188 -30.28125 53.347656 -29.929688 54.421875 -29.671875 C 55.554688 -29.296875 56.1875 -29.425781 56.3125 -30.0625 C 56.445312 -30.25 56.070312 -30.722656 55.1875 -31.484375 C 54.863281 -31.734375 54.523438 -31.96875 54.171875 -32.1875 C 53.828125 -32.40625 53.5 -32.578125 53.1875 -32.703125 Z M 53.1875 -32.703125 "/></g></g></g><g fill="#5e17eb" fill-opacity="1"><g transform="translate(321.475237, 198.032161)"><g><path d="M 21.71875 -35.078125 L 28.4375 -35.078125 L 29.578125 -34.703125 C 32.109375 -34.003906 33.910156 -33.304688 34.984375 -32.609375 C 35.742188 -32.171875 36.40625 -31.695312 36.96875 -31.1875 C 37.539062 -30.6875 38.082031 -30.148438 38.59375 -29.578125 C 40.675781 -26.796875 41.6875 -23.003906 41.625 -18.203125 C 41.5625 -16.242188 41.273438 -14.347656 40.765625 -12.515625 C 40.265625 -10.679688 39.539062 -8.972656 38.59375 -7.390625 C 37.644531 -5.816406 36.441406 -4.441406 34.984375 -3.265625 C 33.535156 -2.097656 31.828125 -1.195312 29.859375 -0.5625 C 29.546875 -0.4375 29.132812 -0.328125 28.625 -0.234375 C 28.125 -0.140625 27.492188 -0.03125 26.734375 0.09375 L 24.46875 0.65625 L 21.625 0.65625 C 15.925781 0.65625 11.398438 -0.648438 8.046875 -3.265625 C 4.703125 -5.890625 2.96875 -10.207031 2.84375 -16.21875 C 2.65625 -23.039062 4.550781 -28.316406 8.53125 -32.046875 C 9.289062 -32.742188 9.96875 -33.296875 10.5625 -33.703125 C 11.164062 -34.117188 11.785156 -34.359375 12.421875 -34.421875 C 12.546875 -34.546875 12.78125 -34.578125 13.125 -34.515625 C 13.476562 -34.453125 13.90625 -34.390625 14.40625 -34.328125 L 15.921875 -34.234375 L 17.34375 -34.609375 C 18.101562 -34.734375 18.847656 -34.828125 19.578125 -34.890625 C 20.304688 -34.953125 21.019531 -35.015625 21.71875 -35.078125 Z M 31.859375 -32.234375 C 30.660156 -32.992188 29.992188 -32.804688 29.859375 -31.671875 C 29.859375 -31.484375 29.921875 -31.320312 30.046875 -31.1875 C 30.179688 -31.0625 30.40625 -30.84375 30.71875 -30.53125 C 31.351562 -30.019531 31.859375 -29.6875 32.234375 -29.53125 C 32.617188 -29.375 33.21875 -29.296875 34.03125 -29.296875 C 34.351562 -29.421875 34.429688 -29.625 34.265625 -29.90625 C 34.109375 -30.195312 33.75 -30.65625 33.1875 -31.28125 C 32.863281 -31.539062 32.609375 -31.734375 32.421875 -31.859375 C 32.234375 -31.984375 32.046875 -32.109375 31.859375 -32.234375 Z M 24.265625 -25.59375 C 23.316406 -25.789062 22.367188 -25.835938 21.421875 -25.734375 C 20.472656 -25.640625 19.554688 -25.4375 18.671875 -25.125 C 18.546875 -25.0625 18.375 -24.882812 18.15625 -24.59375 C 17.9375 -24.3125 17.679688 -23.960938 17.390625 -23.546875 C 17.109375 -23.140625 16.84375 -22.71875 16.59375 -22.28125 C 16.34375 -21.84375 16.148438 -21.429688 16.015625 -21.046875 C 15.390625 -19.660156 15.140625 -18.113281 15.265625 -16.40625 C 15.265625 -14.820312 15.59375 -13.332031 16.25 -11.9375 C 16.914062 -10.550781 18.132812 -9.703125 19.90625 -9.390625 C 20.601562 -9.203125 21.269531 -9.109375 21.90625 -9.109375 C 23.414062 -9.109375 24.644531 -9.359375 25.59375 -9.859375 C 26.539062 -10.367188 27.285156 -11.046875 27.828125 -11.890625 C 28.367188 -12.742188 28.734375 -13.722656 28.921875 -14.828125 C 29.109375 -15.941406 29.203125 -17.128906 29.203125 -18.390625 C 29.203125 -20.347656 28.945312 -21.738281 28.4375 -22.5625 C 28 -23.382812 27.429688 -24.0625 26.734375 -24.59375 C 26.035156 -25.132812 25.210938 -25.46875 24.265625 -25.59375 Z M 24.265625 -25.59375 "/></g></g></g><g fill="#5e17eb" fill-opacity="1"><g transform="translate(274.209165, 195.397916)"><g><path d="M 54.578125 11.234375 C 54.460938 11.734375 54.300781 12.171875 54.09375 12.546875 C 53.894531 12.921875 53.585938 13.351562 53.171875 13.84375 C 52.691406 14.476562 51.910156 15.21875 50.828125 16.0625 C 49.742188 16.90625 48.421875 17.867188 46.859375 18.953125 C 42.640625 21.671875 37.085938 23.597656 30.203125 24.734375 C 29.046875 24.890625 27.625 25.015625 25.9375 25.109375 C 24.257812 25.210938 22.320312 25.226562 20.125 25.15625 C 14.96875 24.96875 10.066406 24.296875 5.421875 23.140625 C 0.785156 21.992188 -3.675781 19.910156 -7.96875 16.890625 C -8.53125 16.410156 -8.96875 15.835938 -9.28125 15.171875 C -9.539062 14.679688 -9.679688 13.976562 -9.703125 13.0625 C -9.710938 12.570312 -9.664062 12.019531 -9.5625 11.40625 C -9.4375 11.101562 -9.363281 10.828125 -9.34375 10.578125 C -9.332031 10.335938 -9.296875 10.066406 -9.234375 9.765625 C -9.078125 8.648438 -8.640625 7.71875 -7.921875 6.96875 L -7.203125 6.046875 L -6.09375 6.109375 C -4.507812 6.253906 -2.320312 7.03125 0.46875 8.4375 C 1.332031 8.90625 1.851562 9.132812 2.03125 9.125 C 2.21875 9.125 2.3125 9.15625 2.3125 9.21875 C 2.382812 9.28125 2.507812 9.320312 2.6875 9.34375 C 2.875 9.375 3.210938 9.472656 3.703125 9.640625 C 4.128906 9.753906 4.5 9.867188 4.8125 9.984375 C 5.125 10.109375 5.34375 10.191406 5.46875 10.234375 C 5.769531 10.234375 5.984375 10.289062 6.109375 10.40625 C 6.421875 10.832031 8.578125 11.398438 12.578125 12.109375 C 15.953125 12.703125 19.257812 12.960938 22.5 12.890625 C 26.414062 12.734375 30.4375 11.992188 34.5625 10.671875 C 38.6875 9.359375 42.375 7.597656 45.625 5.390625 C 46.882812 4.441406 48.035156 3.957031 49.078125 3.9375 C 50.117188 3.914062 51.203125 4.316406 52.328125 5.140625 C 53.003906 5.742188 53.535156 6.46875 53.921875 7.3125 C 54.578125 8.832031 54.796875 10.140625 54.578125 11.234375 Z M 52.453125 7.4375 C 52.335938 7.195312 52.15625 6.988281 51.90625 6.8125 C 51.65625 6.632812 51.347656 6.515625 50.984375 6.453125 C 50.859375 6.460938 50.765625 6.484375 50.703125 6.515625 C 50.640625 6.546875 50.546875 6.625 50.421875 6.75 C 50.191406 6.945312 50.082031 7.257812 50.09375 7.6875 C 50.101562 8.175781 50.3125 8.6875 50.71875 9.21875 C 51.125 9.757812 51.570312 10.023438 52.0625 10.015625 C 52.3125 10.003906 52.519531 9.785156 52.6875 9.359375 C 52.925781 8.679688 52.847656 8.039062 52.453125 7.4375 Z M 52.453125 7.4375 "/></g></g></g><g fill="#5e17eb" fill-opacity="1"><g transform="translate(173.265783, 194.957251)"><g><path d="M 53.828125 12.375 C 53.710938 12.851562 53.546875 13.273438 53.328125 13.640625 C 53.117188 14.003906 52.800781 14.425781 52.375 14.90625 C 51.894531 15.519531 51.109375 16.234375 50.015625 17.046875 C 48.921875 17.867188 47.585938 18.796875 46.015625 19.828125 C 41.773438 22.429688 36.226562 24.21875 29.375 25.1875 C 28.21875 25.3125 26.804688 25.398438 25.140625 25.453125 C 23.472656 25.515625 21.550781 25.488281 19.375 25.375 C 14.28125 25.070312 9.441406 24.296875 4.859375 23.046875 C 0.285156 21.804688 -4.09375 19.640625 -8.28125 16.546875 C -8.820312 16.066406 -9.242188 15.492188 -9.546875 14.828125 C -9.785156 14.335938 -9.90625 13.640625 -9.90625 12.734375 C -9.90625 12.242188 -9.847656 11.695312 -9.734375 11.09375 C -9.609375 10.789062 -9.53125 10.515625 -9.5 10.265625 C -9.46875 10.023438 -9.421875 9.753906 -9.359375 9.453125 C -9.179688 8.367188 -8.726562 7.460938 -8 6.734375 L -7.28125 5.8125 L -6.1875 5.90625 C -4.601562 6.09375 -2.453125 6.910156 0.265625 8.359375 C 1.117188 8.847656 1.632812 9.09375 1.8125 9.09375 C 2 9.09375 2.09375 9.125 2.09375 9.1875 C 2.15625 9.25 2.273438 9.289062 2.453125 9.3125 C 2.640625 9.34375 2.972656 9.453125 3.453125 9.640625 C 3.878906 9.765625 4.242188 9.882812 4.546875 10 C 4.847656 10.125 5.0625 10.21875 5.1875 10.28125 C 5.488281 10.28125 5.695312 10.335938 5.8125 10.453125 C 6.125 10.878906 8.25 11.488281 12.1875 12.28125 C 15.519531 12.945312 18.789062 13.28125 22 13.28125 C 25.882812 13.21875 29.882812 12.578125 34 11.359375 C 38.125 10.148438 41.828125 8.484375 45.109375 6.359375 C 46.378906 5.453125 47.53125 5 48.5625 5 C 49.59375 5 50.65625 5.425781 51.75 6.28125 C 52.414062 6.882812 52.929688 7.609375 53.296875 8.453125 C 53.898438 9.972656 54.078125 11.28125 53.828125 12.375 Z M 51.828125 8.546875 C 51.710938 8.304688 51.53125 8.09375 51.28125 7.90625 C 51.039062 7.726562 50.738281 7.609375 50.375 7.546875 C 50.257812 7.546875 50.171875 7.5625 50.109375 7.59375 C 50.046875 7.625 49.953125 7.703125 49.828125 7.828125 C 49.585938 8.003906 49.46875 8.304688 49.46875 8.734375 C 49.46875 9.210938 49.664062 9.722656 50.0625 10.265625 C 50.457031 10.816406 50.894531 11.09375 51.375 11.09375 C 51.625 11.09375 51.835938 10.878906 52.015625 10.453125 C 52.253906 9.785156 52.191406 9.148438 51.828125 8.546875 Z M 51.828125 8.546875 "/></g></g></g></svg>